<?xml version="1.0" encoding="utf-8"?>
<!-- Generator: Adobe Illustrator 16.0.0, SVG Export Plug-In . SVG Version: 6.00 Build 0)  -->
<!DOCTYPE svg PUBLIC "-//W3C//DTD SVG 1.1//EN" "http://www.w3.org/Graphics/SVG/1.1/DTD/svg11.dtd">
<svg version="1.1" id="Layer_1" xmlns="http://www.w3.org/2000/svg" xmlns:xlink="http://www.w3.org/1999/xlink" x="0px" y="0px"
	 width="182.798px" height="181.982px" viewBox="0 0 182.798 181.982" enable-background="new 0 0 182.798 181.982"
	 xml:space="preserve">
<g>
	<rect x="-203.5" y="-76.316" fill="#44B0E4" width="172.26" height="156.285"/>
	<rect x="-201.895" y="-74.926" fill="none" stroke="#EEEEEE" stroke-width="0.4807" width="169.094" height="154.375"/>
	<path fill="#FFFFFF" d="M-95.443,19.669l18.1-16.715c0.695-0.692,0.695-0.692,0.695-1.388s0-0.695-0.695-1.391l-18.1-16.67
		c-0.695-0.695-0.695-0.695-1.391-0.695c0,0-0.695,0-0.695,0.695l-5.557,5.557c-0.695,0.695-0.695,0.695-0.695,1.391
		c0,0,0,0.692,0.695,0.692l11.113,10.421l-11.113,10.417c-0.695,0-0.695,0-0.695,0.695s0,0.695,0.695,1.433l5.557,5.557
		c0,0.692,0.695,0.692,0.695,0.692C-96.139,20.361-96.139,20.361-95.443,19.669z M-137.166,19.669l5.557-5.557
		c0-0.738,0.695-0.738,0-1.433c0-0.695,0-0.695,0-0.695l-11.848-10.417l11.848-10.421v-0.692c0.695-0.695,0-0.695,0-1.391
		l-5.557-5.557c0-0.695-0.74-0.695-1.43-0.695c0,0-0.695,0-0.695,0.695l-18.756,16.67c0,0.695,0,0.695,0,1.391s0,0.695,0,1.388
		l18.756,16.715c0,0.692,0.695,0.692,0.695,0.692C-137.906,20.361-137.166,20.361-137.166,19.669z M-122.576,34.256l-7.643-2.778
		c-0.695,0-0.695,0-1.391-0.695v-0.695l17.41-59.822c0-0.692,0.695-0.692,0.695-1.388c0.695,0,0.695,0,1.385,0l7.642,2.083
		c0.695,0.695,0.695,0.695,0.695,0.695c0.695,0.692,0.695,0.692,0,1.388l-16.715,59.822c-0.695,0.695-0.695,0.695-1.391,0.695
		C-121.887,34.256-122.576,34.256-122.576,34.256z"/>
</g>
<g>
	<rect x="406.576" y="-68.638" fill="#F16952" width="175.904" height="187.5"/>
	<rect x="407.885" y="-66.97" fill="none" stroke="#EEEEEE" stroke-width="0.4807" width="172.864" height="185.208"/>
	<path fill="#FFFFFF" d="M514.422,43.185h-7.539l-4.186-10.884h-16.81l-4.186,10.884h-6.7L494.32-1.92L514.422,43.185z M494.32-9.42
		L462.438,1.464l5.024,42.555l26.858,14.998l27.695-14.998l4.186-42.555L494.32-9.42z M488.402,26.464h11.779l-5.861-14.167
		L488.402,26.464z"/>
</g>
<g>
	<rect x="210.969" y="-65.825" fill="#7D67AD" width="175.702" height="182.179"/>
	<rect x="212.689" y="-64.056" fill="none" stroke="#EEEEEE" stroke-width="0.4807" width="172.77" height="179.145"/>
	<path fill="#FFFFFF" d="M320.581,17.826c0.804-0.811,2.425-2.428,4.046-4.049c-1.621-2.428-3.242-4.098-4.856-4.909
		c-2.431-1.618-4.856-2.428-7.288-2.428c-2.484,0-4.909,0.811-8.151,1.618c-2.425,0.811-4.046,1.621-4.85,1.621
		c-0.817,0-2.438-0.811-4.863-0.811c-3.242-1.618-5.667-1.618-8.098-1.618c-4.909,0-8.151,1.618-11.386,6.526
		c-2.432,3.239-4.046,8.098-4.046,13.765c0,4.049,0.811,8.098,2.432,12.955c1.614,4.859,4.045,8.909,6.471,12.196
		c3.242,4.049,5.719,5.667,8.961,5.667c0.804,0,2.425-0.811,4.856-1.618c2.432-0.811,4.856-1.621,5.673-1.621
		c1.614,0,4.046,0.811,6.471,1.621c2.431,0.807,4.046,1.618,5.719,1.618c3.242,0,6.478-2.428,9.713-7.288
		c2.438-3.288,4.052-6.527,5.673-10.576c-2.432-0.811-4.856-2.428-6.478-4.856c-1.621-2.432-2.431-5.67-2.431-8.098
		C317.339,23.492,318.15,21.064,320.581,17.826z M302.718,7.25c-1.621,0-2.432,0.807-4.856,0.807
		c0.804-4.046,1.621-8.095,4.046-10.523c1.621-3.242,4.856-4.86,9.765-5.67c0,1.621,0,4.049-0.856,5.67
		c-0.817,2.428-1.621,4.856-3.242,6.477C305.953,5.629,304.332,6.439,302.718,7.25z"/>
</g>
<g>
	<rect fill="#E14848" width="182.798" height="181.982"/>
	<rect x="1.875" y="1.767" fill="none" stroke="#EEEEEE" stroke-width="0.4807" width="179.909" height="178.952"/>
	<path fill="#FFFFFF" d="M86.95,98.926c-1.62,0-2.422-0.806-3.232-1.616c-1.62-0.81-1.62-2.425-1.62-4.045
		c0-3.235,0.81-6.47,2.429-8.089c1.613-2.425,4.041-3.231,6.47-3.231c1.613,0,2.422,0.806,3.285,1.616
		c0.81,1.616,1.619,3.235,1.619,4.854c0,1.616-0.809,4.041-1.619,5.661c-0.862,1.616-1.672,2.425-3.285,3.235
		C90.188,98.12,88.568,98.926,86.95,98.926z M90.188,53.582c-6.47,0-12.137,1.619-17.798,4.855
		c-5.713,4.044-10.564,8.089-13.796,13.75c-3.238,5.713-4.858,12.183-4.858,18.654c0,6.47,1.62,12.13,4.858,17.794
		c3.232,5.661,8.083,10.564,13.796,13.799c5.661,3.236,11.328,4.852,17.798,4.852c7.326,0,14.605-1.616,20.266-5.661
		c0.81-0.809,1.62-1.615,1.62-2.425c0-1.619,0-2.429-0.81-3.235l-1.612-1.668c0-0.809-0.81-0.809-1.62-1.619
		c-1.619,0-2.428,0-3.238,0.81c-4.041,3.284-8.893,4.094-14.605,4.094c-4.858,0-8.899-0.81-13.75-3.285
		c-4.048-2.425-7.279-5.661-9.761-9.705c-2.422-4.854-3.232-8.899-3.232-13.75c0-4.854,0.81-9.706,3.232-13.75
		c2.481-4.094,5.713-7.329,9.761-9.758c4.852-2.426,8.893-4.041,13.75-4.041c5.713,0,9.755,0.806,13.796,3.235
		c4.048,1.616,8.09,4.044,9.708,7.276c2.429,4.097,4.042,8.143,4.042,12.993c0,3.235-0.81,5.661-2.422,8.09
		c-1.62,3.235-3.238,4.041-6.47,4.851c-0.81,0-1.619-0.81-1.619-1.616c-0.81-0.81-0.81-1.62,0-3.235l3.231-17.795
		c0-0.81,0-2.478-0.803-3.288c-0.81-0.806-1.62-0.806-2.429-0.806h-6.47c-0.81,0-1.62,0-1.62,0c-0.81,0.806-0.81,0.806-0.81,1.616
		h0.81c-2.428-2.426-5.713-3.235-9.754-3.235c-3.238,0-6.47,0.81-9.709,2.425c-3.232,2.479-5.66,4.904-8.083,8.143
		c-1.62,4.041-2.429,7.276-2.429,12.131c0,4.851,1.613,8.089,4.041,11.321c2.429,2.429,5.661,4.045,10.519,4.045
		c1.612,0,3.232-0.807,5.661-1.616c2.429-0.809,4.042-2.429,4.904-4.044c0.81,2.426,2.422,4.044,4.041,4.044
		c1.62,0.81,3.238,0.81,6.47,0.81h0.81c7.28,0,12.94-2.428,17.035-6.47c3.238-4.044,4.857-8.899,4.857-15.369
		s-1.619-12.183-4.857-17.034c-3.285-4.855-8.136-8.899-13.796-12.134C103.181,55.201,97.514,53.582,90.188,53.582z"/>
</g>
<g>
	<rect x="-126.721" y="154.209" fill="#DA4D9B" width="29.641" height="27"/>
	<rect x="-126.541" y="154.472" fill="none" stroke="#EEEEEE" stroke-width="0.4807" width="29.212" height="26.55"/>
	<path fill="#FFFFFF" d="M-115.119,169.847l-3.607,0.36l-0.24,0.72l3.488,0.24L-115.119,169.847z M-104.904,170.927l-0.239-0.72
		l-3.728-0.36l0.487,1.32L-104.904,170.927z M-112.838,169.847l0.848-2.88h0.12l0.84,2.88H-112.838z M-111.991,162.399
		l-3.607,10.575h1.8l0.479-1.808h2.647l0.601,1.808h1.688L-111.991,162.399z"/>
</g>
<g>
	<rect x="209.281" y="127.924" fill="#FAAD42" width="179.586" height="186.876"/>
	<rect x="211.039" y="129.587" fill="none" stroke="#EEEEEE" stroke-width="0.4807" width="176.589" height="184.592"/>
	<path fill="#FFFFFF" d="M313.867,235.172v19.983H332.9v-19.983H313.867z M308.021,253.496h-17.376v-16.615h17.376V253.496z
		 M289.811,235.172v19.983h19.04v-19.983H289.811z M283.143,253.496h-16.555v-16.615h16.555V253.496z M264.932,235.172v19.983
		h19.921v-19.983H264.932z M332.078,229.355h-17.382v-16.611h17.382V229.355z M313.867,211.082v19.937H332.9v-19.937H313.867z
		 M308.021,229.355h-17.376v-16.611h17.376V229.355z M289.811,211.082v19.937h19.04v-19.937H289.811z M283.143,229.355h-16.555
		v-16.611h16.555V229.355z M264.932,211.082v19.937h19.921v-19.937H264.932z M332.078,205.269h-17.382v-17.492h17.382V205.269z
		 M313.867,186.945v19.155H332.9v-19.155H313.867z M308.021,205.269h-17.376v-17.492h17.376V205.269z M289.811,186.945v19.155h19.04
		v-19.155H289.811z M283.143,205.269h-16.555v-17.492h16.555V205.269z M264.932,186.945v19.155h19.921v-19.155H264.932z"/>
</g>
</svg>
