<?xml version="1.0" encoding="utf-8"?>
<!-- Generator: Adobe Illustrator 16.0.0, SVG Export Plug-In . SVG Version: 6.00 Build 0)  -->
<!DOCTYPE svg PUBLIC "-//W3C//DTD SVG 1.1//EN" "http://www.w3.org/Graphics/SVG/1.1/DTD/svg11.dtd">
<svg version="1.1" id="Layer_1" xmlns="http://www.w3.org/2000/svg" xmlns:xlink="http://www.w3.org/1999/xlink" x="0px" y="0px"
	 width="182px" height="187.5px" viewBox="0 0 182 187.5" enable-background="new 0 0 182 187.5" xml:space="preserve">
<g>
	<rect x="-122.214" y="80.912" fill="#44B0E4" width="29.76" height="27"/>
	<rect x="-121.937" y="81.152" fill="none" stroke="#EEEEEE" stroke-width="0.4807" width="29.213" height="26.67"/>
	<path fill="#FFFFFF" d="M-103.546,97.494l3.127-2.888c0.12-0.12,0.12-0.12,0.12-0.24s0-0.12-0.12-0.24l-3.127-2.88
		c-0.12-0.12-0.12-0.12-0.24-0.12c0,0-0.12,0-0.12,0.12l-0.96,0.96c-0.12,0.12-0.12,0.12-0.12,0.24c0,0,0,0.12,0.12,0.12l1.92,1.8
		l-1.92,1.8c-0.12,0-0.12,0-0.12,0.12s0,0.12,0.12,0.248l0.96,0.96c0,0.12,0.12,0.12,0.12,0.12
		C-103.666,97.614-103.666,97.614-103.546,97.494z M-110.754,97.494l0.96-0.96c0-0.127,0.12-0.127,0-0.248c0-0.12,0-0.12,0-0.12
		l-2.047-1.8l2.047-1.8v-0.12c0.12-0.12,0-0.12,0-0.24l-0.96-0.96c0-0.12-0.128-0.12-0.247-0.12c0,0-0.12,0-0.12,0.12l-3.24,2.88
		c0,0.12,0,0.12,0,0.24s0,0.12,0,0.24l3.24,2.888c0,0.12,0.12,0.12,0.12,0.12C-110.882,97.614-110.754,97.614-110.754,97.494z
		 M-108.233,100.014l-1.32-0.48c-0.12,0-0.12,0-0.24-0.12v-0.12l3.008-10.335c0-0.12,0.12-0.12,0.12-0.24c0.12,0,0.12,0,0.239,0
		l1.32,0.36c0.12,0.12,0.12,0.12,0.12,0.12c0.12,0.12,0.12,0.12,0,0.24l-2.888,10.335c-0.12,0.12-0.12,0.12-0.24,0.12
		C-108.114,100.014-108.233,100.014-108.233,100.014z"/>
</g>
<g>
	<rect x="-119.904" y="42.728" fill="#F16952" width="25.2" height="27"/>
	<rect x="-119.716" y="42.968" fill="none" stroke="#EEEEEE" stroke-width="0.4807" width="24.765" height="26.67"/>
	<path fill="#FFFFFF" d="M-104.454,58.83h-1.08l-0.6-1.567h-2.408l-0.6,1.567h-0.96l2.768-6.495L-104.454,58.83z M-107.333,51.255
		l-4.567,1.567l0.72,6.128l3.848,2.16l3.968-2.16l0.6-6.128L-107.333,51.255z M-108.181,56.422h1.688l-0.84-2.04L-108.181,56.422z"
		/>
</g>
<g>
	<rect x="2.969" y="3.175" fill="#7D67AD" width="175.702" height="182.179"/>
	<rect x="4.689" y="4.944" fill="none" stroke="#EEEEEE" stroke-width="0.4807" width="172.77" height="179.145"/>
	<path fill="#FFFFFF" d="M112.581,86.826c0.804-0.811,2.425-2.428,4.046-4.049c-1.621-2.428-3.242-4.098-4.856-4.909
		c-2.431-1.618-4.856-2.428-7.288-2.428c-2.484,0-4.909,0.811-8.151,1.618c-2.425,0.811-4.046,1.621-4.85,1.621
		c-0.817,0-2.438-0.811-4.863-0.811c-3.242-1.618-5.667-1.618-8.098-1.618c-4.909,0-8.151,1.618-11.386,6.526
		c-2.432,3.239-4.046,8.098-4.046,13.765c0,4.049,0.811,8.098,2.432,12.955c1.614,4.859,4.045,8.909,6.471,12.196
		c3.242,4.049,5.719,5.667,8.961,5.667c0.804,0,2.425-0.811,4.856-1.618c2.432-0.811,4.856-1.621,5.673-1.621
		c1.614,0,4.046,0.811,6.471,1.621c2.431,0.807,4.046,1.618,5.719,1.618c3.242,0,6.478-2.428,9.713-7.288
		c2.438-3.288,4.052-6.527,5.673-10.576c-2.432-0.811-4.856-2.428-6.478-4.856c-1.621-2.432-2.431-5.67-2.431-8.098
		C109.339,92.492,110.15,90.064,112.581,86.826z M94.718,76.25c-1.621,0-2.432,0.807-4.856,0.807
		c0.804-4.046,1.621-8.095,4.046-10.523c1.621-3.242,4.856-4.86,9.765-5.67c0,1.621,0,4.049-0.856,5.67
		c-0.817,2.428-1.621,4.856-3.242,6.477C97.953,74.629,96.332,75.439,94.718,76.25z"/>
</g>
<g>
	<rect x="-120.895" y="118.289" fill="#E14848" width="27.121" height="27"/>
	<rect x="-120.616" y="118.551" fill="none" stroke="#EEEEEE" stroke-width="0.4807" width="26.692" height="26.55"/>
	<path fill="#FFFFFF" d="M-107.994,132.966c-0.24,0-0.359-0.12-0.479-0.24c-0.24-0.12-0.24-0.36-0.24-0.6c0-0.48,0.12-0.96,0.36-1.2
		c0.239-0.36,0.6-0.479,0.96-0.479c0.239,0,0.359,0.12,0.487,0.24c0.12,0.24,0.24,0.48,0.24,0.72c0,0.24-0.12,0.6-0.24,0.84
		c-0.128,0.24-0.248,0.36-0.487,0.48C-107.514,132.847-107.754,132.966-107.994,132.966z M-107.514,126.239
		c-0.96,0-1.801,0.24-2.641,0.72c-0.848,0.6-1.567,1.2-2.047,2.04c-0.48,0.848-0.721,1.808-0.721,2.768s0.24,1.8,0.721,2.64
		c0.479,0.84,1.199,1.567,2.047,2.047c0.84,0.48,1.681,0.72,2.641,0.72c1.087,0,2.167-0.24,3.007-0.84
		c0.12-0.12,0.24-0.24,0.24-0.36c0-0.24,0-0.36-0.12-0.48l-0.239-0.248c0-0.12-0.12-0.12-0.24-0.24c-0.24,0-0.36,0-0.48,0.12
		c-0.6,0.487-1.319,0.607-2.167,0.607c-0.721,0-1.32-0.12-2.04-0.487c-0.601-0.36-1.08-0.84-1.448-1.44
		c-0.359-0.72-0.479-1.32-0.479-2.04c0-0.72,0.12-1.44,0.479-2.04c0.368-0.607,0.848-1.087,1.448-1.448
		c0.72-0.36,1.319-0.6,2.04-0.6c0.848,0,1.447,0.12,2.047,0.48c0.601,0.24,1.2,0.6,1.44,1.08c0.36,0.608,0.6,1.208,0.6,1.928
		c0,0.48-0.12,0.84-0.359,1.2c-0.24,0.48-0.48,0.6-0.96,0.72c-0.12,0-0.24-0.12-0.24-0.24c-0.12-0.12-0.12-0.24,0-0.48l0.479-2.64
		c0-0.12,0-0.368-0.119-0.488c-0.12-0.12-0.24-0.12-0.36-0.12h-0.96c-0.12,0-0.24,0-0.24,0c-0.12,0.12-0.12,0.12-0.12,0.24h0.12
		c-0.36-0.36-0.848-0.48-1.447-0.48c-0.48,0-0.96,0.12-1.44,0.36c-0.479,0.368-0.84,0.728-1.199,1.208c-0.24,0.6-0.36,1.08-0.36,1.8
		c0,0.72,0.239,1.2,0.6,1.68c0.36,0.36,0.84,0.6,1.561,0.6c0.239,0,0.479-0.12,0.84-0.24s0.6-0.36,0.728-0.6
		c0.12,0.36,0.359,0.6,0.6,0.6c0.24,0.12,0.48,0.12,0.96,0.12h0.12c1.08,0,1.92-0.36,2.527-0.96c0.48-0.6,0.721-1.32,0.721-2.28
		s-0.24-1.808-0.721-2.527c-0.487-0.72-1.207-1.32-2.047-1.8C-105.586,126.479-106.427,126.239-107.514,126.239z"/>
</g>
<g>
	<rect x="-126.721" y="154.209" fill="#DA4D9B" width="29.641" height="27"/>
	<rect x="-126.541" y="154.472" fill="none" stroke="#EEEEEE" stroke-width="0.4807" width="29.212" height="26.55"/>
	<path fill="#FFFFFF" d="M-115.119,169.847l-3.607,0.36l-0.24,0.72l3.488,0.24L-115.119,169.847z M-104.904,170.927l-0.239-0.72
		l-3.728-0.36l0.487,1.32L-104.904,170.927z M-112.838,169.847l0.848-2.88h0.12l0.84,2.88H-112.838z M-111.991,162.399
		l-3.607,10.575h1.8l0.479-1.808h2.647l0.601,1.808h1.688L-111.991,162.399z"/>
</g>
<g>
	<rect x="-115.786" y="-45.5" fill="#FAAD42" width="26.04" height="27"/>
	<rect x="-115.531" y="-45.26" fill="none" stroke="#EEEEEE" stroke-width="0.4807" width="25.605" height="26.67"/>
	<path fill="#FFFFFF" d="M-100.621-30.005v2.887h2.76v-2.887H-100.621z M-101.469-27.357h-2.52v-2.4h2.52V-27.357z M-104.109-30.005
		v2.887h2.761v-2.887H-104.109z M-105.076-27.357h-2.4v-2.4h2.4V-27.357z M-107.717-30.005v2.887h2.889v-2.887H-107.717z
		 M-97.98-30.845h-2.521v-2.4h2.521V-30.845z M-100.621-33.485v2.88h2.76v-2.88H-100.621z M-101.469-30.845h-2.52v-2.4h2.52V-30.845
		z M-104.109-33.485v2.88h2.761v-2.88H-104.109z M-105.076-30.845h-2.4v-2.4h2.4V-30.845z M-107.717-33.485v2.88h2.889v-2.88
		H-107.717z M-97.98-34.325h-2.521v-2.527h2.521V-34.325z M-100.621-36.973v2.768h2.76v-2.768H-100.621z M-101.469-34.325h-2.52
		v-2.527h2.52V-34.325z M-104.109-36.973v2.768h2.761v-2.768H-104.109z M-105.076-34.325h-2.4v-2.527h2.4V-34.325z M-107.717-36.973
		v2.768h2.889v-2.768H-107.717z"/>
</g>
</svg>
