<?xml version="1.0" encoding="utf-8"?>
<!-- Generator: Adobe Illustrator 16.0.0, SVG Export Plug-In . SVG Version: 6.00 Build 0)  -->
<!DOCTYPE svg PUBLIC "-//W3C//DTD SVG 1.1//EN" "http://www.w3.org/Graphics/SVG/1.1/DTD/svg11.dtd">
<svg version="1.1" id="Layer_1" xmlns="http://www.w3.org/2000/svg" xmlns:xlink="http://www.w3.org/1999/xlink" x="0px" y="0px"
	 width="182.798px" height="166.739px" viewBox="0 0 182.798 166.739" enable-background="new 0 0 182.798 166.739"
	 xml:space="preserve">
<g>
	<rect x="263.237" y="4.818" fill="#44B0E4" width="172.259" height="156.285"/>
	<rect x="264.842" y="6.209" fill="none" stroke="#EEEEEE" stroke-width="0.4807" width="169.094" height="154.375"/>
	<path fill="#FFFFFF" d="M371.293,100.804l18.1-16.715c0.695-0.692,0.695-0.692,0.695-1.388s0-0.695-0.695-1.391l-18.1-16.67
		c-0.695-0.695-0.695-0.695-1.391-0.695c0,0-0.695,0-0.695,0.695l-5.557,5.557c-0.695,0.695-0.695,0.695-0.695,1.391
		c0,0,0,0.692,0.695,0.692l11.113,10.421L363.65,93.119c-0.695,0-0.695,0-0.695,0.695s0,0.695,0.695,1.433l5.557,5.557
		c0,0.692,0.695,0.692,0.695,0.692C370.598,101.496,370.598,101.496,371.293,100.804z M329.57,100.804l5.557-5.557
		c0-0.738,0.695-0.738,0-1.433c0-0.695,0-0.695,0-0.695L323.28,82.701l11.847-10.421v-0.692c0.695-0.695,0-0.695,0-1.391
		l-5.557-5.557c0-0.695-0.74-0.695-1.429-0.695c0,0-0.695,0-0.695,0.695l-18.756,16.67c0,0.695,0,0.695,0,1.391s0,0.695,0,1.388
		l18.756,16.715c0,0.692,0.695,0.692,0.695,0.692C328.831,101.496,329.57,101.496,329.57,100.804z M344.16,115.391l-7.643-2.778
		c-0.695,0-0.695,0-1.391-0.695v-0.695l17.41-59.822c0-0.692,0.695-0.692,0.695-1.388c0.695,0,0.695,0,1.386,0l7.642,2.083
		c0.695,0.695,0.695,0.695,0.695,0.695c0.695,0.692,0.695,0.692,0,1.388L346.24,114c-0.695,0.695-0.695,0.695-1.391,0.695
		C344.85,115.391,344.16,115.391,344.16,115.391z"/>
</g>
<g>
	<rect x="653.01" y="-203.824" fill="#F16952" width="175.904" height="187.5"/>
	<rect x="654.319" y="-202.156" fill="none" stroke="#EEEEEE" stroke-width="0.4807" width="172.864" height="185.208"/>
	<path fill="#FFFFFF" d="M760.856-92.001h-7.539l-4.186-10.884h-16.81l-4.186,10.884h-6.7l19.318-45.104L760.856-92.001z
		 M740.755-144.606l-31.883,10.885l5.024,42.555l26.858,14.998l27.695-14.998l4.186-42.555L740.755-144.606z M734.837-108.722
		h11.779l-5.861-14.167L734.837-108.722z"/>
</g>
<g>
	<rect x="451.988" y="-201.011" fill="#7D67AD" width="175.702" height="182.179"/>
	<rect x="453.708" y="-199.242" fill="none" stroke="#EEEEEE" stroke-width="0.4807" width="172.771" height="179.145"/>
	<path fill="#FFFFFF" d="M561.6-117.36c0.805-0.811,2.426-2.428,4.047-4.049c-1.621-2.428-3.242-4.098-4.857-4.909
		c-2.431-1.618-4.855-2.428-7.287-2.428c-2.484,0-4.908,0.811-8.15,1.618c-2.426,0.811-4.047,1.621-4.85,1.621
		c-0.817,0-2.438-0.811-4.863-0.811c-3.242-1.618-5.667-1.618-8.098-1.618c-4.91,0-8.151,1.618-11.387,6.526
		c-2.432,3.239-4.046,8.098-4.046,13.765c0,4.049,0.811,8.098,2.432,12.955c1.614,4.859,4.046,8.909,6.471,12.196
		c3.241,4.049,5.72,5.667,8.961,5.667c0.804,0,2.425-0.811,4.856-1.618c2.432-0.811,4.856-1.621,5.674-1.621
		c1.613,0,4.045,0.811,6.471,1.621c2.431,0.807,4.045,1.618,5.719,1.618c3.242,0,6.478-2.428,9.713-7.288
		c2.438-3.288,4.053-6.527,5.674-10.576c-2.432-0.811-4.857-2.428-6.479-4.856c-1.62-2.432-2.431-5.67-2.431-8.098
		C558.358-111.694,559.169-114.122,561.6-117.36z M543.736-127.936c-1.621,0-2.432,0.807-4.855,0.807
		c0.804-4.046,1.621-8.095,4.045-10.523c1.621-3.242,4.857-4.86,9.766-5.67c0,1.621,0,4.049-0.856,5.67
		c-0.817,2.428-1.621,4.856-3.241,6.477C546.973-129.557,545.352-128.747,543.736-127.936z"/>
</g>
<g>
	<rect x="649.353" y="-3.879" fill="#E14848" width="182.798" height="181.982"/>
	<rect x="651.229" y="-2.112" fill="none" stroke="#EEEEEE" stroke-width="0.4807" width="179.908" height="178.952"/>
	<path fill="#FFFFFF" d="M736.303,95.047c-1.62,0-2.423-0.806-3.232-1.616c-1.619-0.81-1.619-2.425-1.619-4.045
		c0-3.235,0.81-6.47,2.429-8.089c1.612-2.425,4.041-3.231,6.47-3.231c1.613,0,2.423,0.806,3.285,1.616
		c0.81,1.616,1.619,3.235,1.619,4.854c0,1.616-0.81,4.041-1.619,5.661c-0.862,1.616-1.672,2.425-3.285,3.235
		C739.541,94.241,737.921,95.047,736.303,95.047z M739.541,49.703c-6.471,0-12.138,1.619-17.799,4.855
		c-5.713,4.044-10.564,8.089-13.796,13.75c-3.238,5.713-4.858,12.183-4.858,18.654c0,6.47,1.62,12.131,4.858,17.795
		c3.231,5.66,8.083,10.564,13.796,13.799c5.661,3.236,11.328,4.852,17.799,4.852c7.326,0,14.605-1.615,20.266-5.661
		c0.81-0.81,1.619-1.615,1.619-2.425c0-1.619,0-2.43-0.81-3.236l-1.612-1.668c0-0.809-0.81-0.809-1.619-1.619
		c-1.619,0-2.429,0-3.238,0.811c-4.041,3.283-8.893,4.094-14.605,4.094c-4.858,0-8.899-0.811-13.751-3.285
		c-4.048-2.426-7.279-5.66-9.761-9.705c-2.422-4.854-3.232-8.899-3.232-13.75c0-4.854,0.811-9.706,3.232-13.75
		c2.481-4.094,5.713-7.329,9.761-9.758c4.852-2.426,8.893-4.041,13.751-4.041c5.713,0,9.754,0.806,13.795,3.235
		c4.049,1.616,8.09,4.044,9.709,7.276c2.43,4.097,4.041,8.143,4.041,12.993c0,3.235-0.809,5.661-2.422,8.09
		c-1.619,3.235-3.238,4.041-6.47,4.851c-0.81,0-1.619-0.81-1.619-1.616c-0.81-0.81-0.81-1.62,0-3.235l3.231-17.795
		c0-0.81,0-2.478-0.803-3.288c-0.81-0.806-1.619-0.806-2.429-0.806h-6.47c-0.811,0-1.62,0-1.62,0c-0.81,0.806-0.81,0.806-0.81,1.616
		h0.81c-2.429-2.426-5.713-3.235-9.755-3.235c-3.238,0-6.47,0.81-9.709,2.425c-3.231,2.479-5.66,4.904-8.082,8.143
		c-1.619,4.041-2.429,7.276-2.429,12.131c0,4.851,1.612,8.089,4.041,11.321c2.429,2.428,5.661,4.045,10.519,4.045
		c1.612,0,3.232-0.807,5.66-1.617c2.43-0.809,4.042-2.428,4.904-4.044c0.81,2.426,2.422,4.044,4.041,4.044
		c1.619,0.811,3.238,0.811,6.471,0.811h0.81c7.28,0,12.94-2.429,17.034-6.471c3.238-4.044,4.857-8.899,4.857-15.369
		s-1.619-12.183-4.857-17.034c-3.284-4.855-8.136-8.899-13.796-12.134C752.533,51.322,746.867,49.703,739.541,49.703z"/>
</g>
<g>
	<rect x="448.527" y="3.512" fill="#DA4D9B" width="183.046" height="166.739"/>
	<rect x="449.643" y="5.131" fill="none" stroke="#EEEEEE" stroke-width="0.4807" width="180.398" height="163.962"/>
	<path fill="#FFFFFF" d="M520.179,100.08l-22.278,2.226l-1.482,4.444l21.541,1.484L520.179,100.08z M583.261,106.75l-1.478-4.444
		l-23.02-2.226l3.01,8.154L583.261,106.75z M534.26,100.08l5.235-17.785h0.741l5.188,17.785H534.26z M539.495,54.089l-22.278,65.308
		h11.115l2.961-11.163h16.35l3.709,11.163h10.422L539.495,54.089z"/>
</g>
<g>
	<rect x="254.351" y="-203.047" fill="#FAAD42" width="179.586" height="186.876"/>
	<rect x="256.108" y="-201.384" fill="none" stroke="#EEEEEE" stroke-width="0.4807" width="176.589" height="184.592"/>
	<path fill="#FFFFFF" d="M358.936-95.799v19.983h19.033v-19.983H358.936z M353.091-77.475h-17.376V-94.09h17.376V-77.475z
		 M334.88-95.799v19.983h19.04v-19.983H334.88z M328.212-77.475h-16.555V-94.09h16.555V-77.475z M310.001-95.799v19.983h19.92
		v-19.983H310.001z M377.147-101.616h-17.382v-16.611h17.382V-101.616z M358.936-119.889v19.937h19.033v-19.937H358.936z
		 M353.091-101.616h-17.376v-16.611h17.376V-101.616z M334.88-119.889v19.937h19.04v-19.937H334.88z M328.212-101.616h-16.555
		v-16.611h16.555V-101.616z M310.001-119.889v19.937h19.92v-19.937H310.001z M377.147-125.703h-17.382v-17.492h17.382V-125.703z
		 M358.936-144.026v19.155h19.033v-19.155H358.936z M353.091-125.703h-17.376v-17.492h17.376V-125.703z M334.88-144.026v19.155
		h19.04v-19.155H334.88z M328.212-125.703h-16.555v-17.492h16.555V-125.703z M310.001-144.026v19.155h19.92v-19.155H310.001z"/>
</g>
<path fill="#EEEEEE" d="M62.031,124.167H84.84V111.01c0-0.685,0.696-1.375,0.696-2.066c0.685,0,1.376-0.69,2.066-0.69h7.592
	c0.685,0,1.381,0.69,2.066,0.69c0.69,0.691,0.69,1.381,0.69,2.066v13.157h22.815V40.545H62.031V124.167z M136.68,126.924v7.592
	H46.118v-7.592c0-0.685,0-1.375,0.685-1.375c0.696-0.691,1.381-0.691,2.078-0.691h3.448V35.716c0-1.381,0.685-2.757,1.421-3.448
	c1.381-0.691,2.072-1.381,3.453-1.381h68.438c1.381,0,2.066,0.69,3.448,1.381c0.69,0.69,1.381,2.066,1.381,3.448v89.142h4.138
	c0.691,0,0.691,0,1.382,0.691C136.68,125.548,136.68,126.239,136.68,126.924z M100.069,102.043h8.277c0.691,0,1.381,0,2.066-0.691
	c0-0.69,0.696-1.381,0.696-2.066v-7.592c0-0.69-0.696-1.381-0.696-2.072c-0.685,0-1.375-0.691-2.066-0.691h-8.277
	c0,0-0.735,0.691-1.426,0.691c-0.691,0.69-0.691,1.381-0.691,2.072v7.592c0,0.685,0,1.376,0.691,2.066
	C99.333,102.043,99.333,102.043,100.069,102.043z M84.84,99.286v-7.592c0-0.69,0-1.381-0.685-2.072c0,0-0.696-0.691-1.381-0.691
	h-8.322c-0.696,0-1.381,0.691-2.072,0.691c0,0.69-0.69,1.381-0.69,2.072v7.592c0,0.685,0.69,1.376,0.69,2.066
	c0.691,0.691,1.376,0.691,2.072,0.691h8.322c0.685,0,0.685,0,1.381-0.691C84.84,100.662,84.84,99.971,84.84,99.286z M100.069,82.682
	h8.277c0.691,0,1.381,0,2.066-0.691c0-0.69,0.696-1.381,0.696-2.072v-7.586c0-0.69-0.696-1.381-0.696-2.072
	c-0.685-0.691-1.375-0.691-2.066-0.691h-8.277c0,0-0.735,0-1.426,0.691c-0.691,0.69-0.691,1.381-0.691,2.072v7.586
	c0,0.69,0,1.381,0.691,2.072C99.333,81.991,99.333,82.682,100.069,82.682z M74.452,82.682h8.322c0.685,0,0.685,0,1.381-0.691
	c0.685-0.69,0.685-1.381,0.685-2.072v-7.586c0-0.69,0-1.381-0.685-2.072c0-0.691-0.696-0.691-1.381-0.691h-8.322
	c-0.696,0-1.381,0-2.072,0.691c0,0.69-0.69,1.381-0.69,2.072v7.586c0,0.69,0.69,1.381,0.69,2.072
	C73.071,81.991,73.756,82.682,74.452,82.682z M100.069,63.359h8.277c0.691,0,1.381-0.69,2.066-0.69c0-0.691,0.696-1.381,0.696-2.066
	v-8.328c0,0-0.696-0.69-0.696-1.375c-0.685-0.691-1.375-0.691-2.066-0.691h-8.277c0,0-0.735,0-1.426,0.691
	c-0.691,0.685-0.691,1.375-0.691,1.375v8.328c0,0.685,0,1.375,0.691,2.066C99.333,62.669,99.333,63.359,100.069,63.359z
	 M71.689,60.603v-8.328c0,0,0.69-0.69,0.69-1.375c0.691-0.691,1.376-0.691,2.072-0.691h8.322c0.685,0,0.685,0,1.381,0.691
	c0.685,0.685,0.685,1.375,0.685,1.375v8.328c0,0.685,0,1.375-0.685,2.066c0,0-0.696,0.69-1.381,0.69h-8.322
	c-0.696,0-1.381-0.69-2.072-0.69C72.38,61.978,71.689,61.288,71.689,60.603z"/>
<path fill="#EEEEEE" d="M-192.097-18.772l-0.961-0.24c-0.487,0.36-0.967,0.6-1.567,0.6c-0.479,0-0.96-0.12-1.44-0.359
	c0.24,0.479,0.48,1.08,0.48,1.68v2.28h3.848c0.24,0,0.48-0.12,0.6-0.24c0.24-0.24,0.24-0.36,0.24-0.6v-1.44c0-0.36,0-0.72-0.24-1.08
	C-191.378-18.413-191.737-18.652-192.097-18.772z M-208.567-14.933v-2.16c0-0.6,0.12-1.08,0.48-1.68
	c-0.601,0.239-1.08,0.359-1.688,0.359c-0.48-0.12-0.961-0.239-1.44-0.6l-0.84,0.24c-0.479,0.12-0.72,0.359-0.96,0.6
	c-0.24,0.36-0.36,0.72-0.36,1.08v1.44c0,0.239,0.12,0.359,0.24,0.6c0.12,0.12,0.36,0.24,0.601,0.24h3.967V-14.933z M-209.415-18.893
	c0.607,0,1.207-0.24,1.688-0.728c0.48-0.48,0.721-1.08,0.721-1.8c0-0.601-0.24-1.2-0.721-1.681c-0.48-0.479-0.96-0.72-1.688-0.72
	c-0.72,0-1.32,0.24-1.8,0.72c-0.479,0.48-0.72,1.08-0.72,1.681c0,0.72,0.24,1.319,0.72,1.8
	C-210.735-19.133-210.135-18.893-209.415-18.893z M-194.745-18.893c0.6,0,1.2-0.24,1.688-0.728c0.48-0.48,0.721-1.08,0.721-1.8
	c0-0.601-0.24-1.2-0.721-1.681c-0.487-0.479-1.088-0.72-1.688-0.72c-0.72,0-1.32,0.24-1.8,0.72c-0.479,0.48-0.728,1.08-0.728,1.681
	c0,0.72,0.248,1.319,0.728,1.8C-196.065-19.133-195.465-18.893-194.745-18.893z M-198.112-19.62l-1.439-0.36
	c-0.841,0.607-1.681,0.968-2.648,0.848c-0.959,0-1.8-0.24-2.52-0.848l-1.328,0.36c-0.6,0.12-1.08,0.487-1.439,0.968
	c-0.359,0.359-0.48,0.96-0.48,1.56v2.16c0,0.24,0.121,0.6,0.36,0.84c0.24,0.24,0.479,0.36,0.84,0.36h9.255
	c0.367,0,0.729-0.12,0.968-0.36c0.24-0.24,0.36-0.6,0.36-0.84v-2.16c0-0.6-0.24-1.2-0.48-1.56
	C-197.024-19.133-197.513-19.5-198.112-19.62z M-202.08-27.188c0.601,0,1.327,0.12,1.808,0.479c0.6,0.24,1.08,0.721,1.32,1.32
	c0.359,0.607,0.48,1.207,0.48,1.808c0,0.72-0.121,1.32-0.48,1.92c-0.24,0.6-0.721,0.96-1.32,1.32
	c-0.48,0.359-1.207,0.479-1.808,0.479c-0.72,0-1.319-0.12-1.92-0.479c-0.479-0.36-0.96-0.721-1.327-1.32
	c-0.36-0.6-0.48-1.2-0.48-1.92c0-0.601,0.12-1.2,0.48-1.808c0.367-0.6,0.848-1.08,1.327-1.32
	C-203.399-27.067-202.8-27.188-202.08-27.188z"/>
<path fill="#EEEEEE" d="M-115.348,97.509l-7.236-7.202c-0.601-0.601-1.201-0.601-1.201-0.601c-0.601,0-1.201,0-1.802,0.601l-5.4,5.4
	l10.2,10.239l5.439-5.439c0.601-0.601,0.601-1.201,0.601-1.201C-114.748,98.705-114.748,98.109-115.348,97.509z M-126.784,111.947
	l-10.239-10.239l-32.437,32.476l-1.201,11.396l11.401-1.196L-126.784,111.947z M-109.347,106.547l-46.274,46.235l-15.64,1.802
	c-2.397,0-4.199-0.601-6.035-2.402c-1.802-1.797-2.402-3.599-2.402-6.001l1.802-15.635l46.313-46.24
	c2.397-1.797,4.8-2.998,7.798-2.998c2.397,0,4.8,1.201,7.202,2.998l7.236,7.202c2.397,2.397,2.998,4.8,2.998,7.798
	C-106.349,101.708-106.95,104.145-109.347,106.547z M-137.023,141.981l6.035-5.4c0-0.601,0.601-0.601,1.201-0.601
	s1.201,0.601,1.201,1.201v25.84c0,2.397-1.201,4.199-2.402,5.996c-1.797,1.201-3.599,2.402-6.035,2.402h-61.914
	c-2.397,0-4.8-1.201-6.001-2.402c-1.797-1.797-2.397-3.599-2.397-5.996v-61.914c0-2.402,0.601-4.8,2.397-6.001
	c1.201-1.802,3.604-2.397,6.001-2.397h48.115c0.601,0,1.196,0,1.196,0.596c0,0.601,0,1.201-0.596,1.802l-5.4,5.4l-0.64,0.601
	h-42.676v61.914h61.914v-20.439V141.981z"/>
<path fill="#EEEEEE" d="M-250.519,41.77c0.24-0.24,0.24-0.48,0.12-0.84c-0.12-0.24-0.36-0.36-0.601-0.48
	c-0.359,0-0.607,0.12-0.847,0.36c-0.601,0.84-1.2,1.319-2.04,1.56c-0.84,0.36-1.561,0.36-2.408,0c-0.72-0.24-1.439-0.72-2.04-1.56
	c-0.239-0.24-0.479-0.36-0.84-0.36c-0.239,0.12-0.487,0.24-0.607,0.48c-0.12,0.359-0.12,0.6,0.12,0.84
	c0.728,1.08,1.688,1.8,2.888,2.28c1.08,0.359,2.287,0.359,3.367,0C-252.206,43.57-251.238,42.85-250.519,41.77z M-257.374,35.403
	c-0.239,0-0.6,0.119-0.84,0.239h0.12c0,0,0.24,0.12,0.36,0.24c0.24,0.12,0.24,0.36,0.24,0.601c0,0.239,0,0.359-0.24,0.6
	c-0.12,0.12-0.36,0.24-0.48,0.24c-0.24,0-0.479-0.12-0.6-0.24c-0.12-0.24-0.24-0.36-0.24-0.6h0.12c-0.24,0.239-0.36,0.6-0.36,0.84
	c0,0.6,0.24,1.08,0.601,1.439c0.359,0.36,0.84,0.601,1.319,0.601c0.601,0,1.08-0.24,1.44-0.601c0.36-0.359,0.607-0.84,0.607-1.439
	c0-0.48-0.247-0.96-0.607-1.32S-256.773,35.403-257.374,35.403z M-252.806,35.403c-0.36,0-0.601,0.119-0.961,0.239h0.12
	c0.12,0,0.36,0.12,0.48,0.24s0.24,0.36,0.24,0.601c0,0.239-0.12,0.359-0.24,0.6c-0.12,0.12-0.36,0.24-0.601,0.24
	c-0.239,0-0.359-0.12-0.6-0.24c-0.12-0.24-0.24-0.36-0.24-0.6h0.12c-0.239,0.239-0.359,0.6-0.359,0.84c0,0.6,0.239,1.08,0.6,1.439
	c0.36,0.36,0.84,0.601,1.44,0.601c0.479,0,0.96-0.24,1.319-0.601c0.487-0.359,0.607-0.84,0.607-1.439c0-0.48-0.12-0.96-0.607-1.32
	C-251.846,35.642-252.326,35.403-252.806,35.403z M-255.086,30.595c-1.567,0-3.008,0.359-4.327,1.2
	c-1.328,0.84-2.408,1.8-3.248,3.247c-0.72,1.32-1.207,2.76-1.207,4.32c0,1.567,0.487,3.007,1.207,4.327
	c0.84,1.32,1.92,2.4,3.248,3.247c1.319,0.721,2.76,1.08,4.327,1.08c1.56,0,3-0.359,4.327-1.08c1.44-0.847,2.4-1.927,3.24-3.247
	c0.728-1.32,1.207-2.76,1.207-4.327c0-1.561-0.479-3-1.207-4.32c-0.84-1.447-1.8-2.407-3.24-3.247
	C-252.086,31.075-253.526,30.595-255.086,30.595z M-255.086,32.275c1.319,0,2.399,0.36,3.479,0.96
	c1.088,0.6,1.928,1.567,2.647,2.647c0.601,1.08,0.96,2.16,0.96,3.48c0,1.207-0.359,2.407-0.96,3.487
	c-0.72,1.08-1.56,1.92-2.647,2.64c-1.08,0.601-2.16,0.848-3.479,0.848c-1.208,0-2.407-0.247-3.487-0.848
	c-1.088-0.72-1.928-1.56-2.647-2.64c-0.601-1.08-0.841-2.28-0.841-3.487c0-1.32,0.24-2.4,0.841-3.48
	c0.72-1.08,1.56-2.048,2.647-2.647C-257.493,32.635-256.294,32.275-255.086,32.275z"/>
</svg>
