<?xml version="1.0" encoding="utf-8"?>
<!-- Generator: Adobe Illustrator 16.0.0, SVG Export Plug-In . SVG Version: 6.00 Build 0)  -->
<!DOCTYPE svg PUBLIC "-//W3C//DTD SVG 1.1//EN" "http://www.w3.org/Graphics/SVG/1.1/DTD/svg11.dtd">
<svg version="1.1" id="Layer_1" xmlns="http://www.w3.org/2000/svg" xmlns:xlink="http://www.w3.org/1999/xlink" x="0px" y="0px"
	 width="180px" height="180px" viewBox="0 -6.63 180 180" enable-background="new 0 -6.63 180 180" xml:space="preserve">
<rect x="-13.421" y="-20.097" fill="#7C7C7C" stroke="#FFFFFF" stroke-width="0.4807" width="227.336" height="233"/>
<g>
	<rect x="263.237" y="4.818" fill="#44B0E4" width="172.26" height="156.285"/>
	<rect x="264.842" y="6.209" fill="none" stroke="#EEEEEE" stroke-width="0.4807" width="169.094" height="154.375"/>
	<path fill="#FFFFFF" d="M371.293,100.804l18.1-16.716c0.695-0.691,0.695-0.691,0.695-1.387c0-0.696,0-0.695-0.695-1.391
		l-18.1-16.67c-0.695-0.695-0.695-0.695-1.392-0.695c0,0-0.694,0-0.694,0.695l-5.558,5.557c-0.694,0.695-0.694,0.695-0.694,1.391
		c0,0,0,0.692,0.694,0.692l11.113,10.421L363.65,93.12c-0.694,0-0.694,0-0.694,0.694s0,0.694,0.694,1.433l5.558,5.558
		c0,0.692,0.694,0.692,0.694,0.692C370.598,101.497,370.598,101.497,371.293,100.804z M329.57,100.804l5.558-5.558
		c0-0.738,0.695-0.738,0-1.433c0-0.694,0-0.694,0-0.694L323.28,82.701l11.848-10.421v-0.692c0.695-0.695,0-0.695,0-1.391
		l-5.558-5.557c0-0.695-0.739-0.695-1.429-0.695c0,0-0.695,0-0.695,0.695L308.69,81.31c0,0.695,0,0.695,0,1.391
		c0,0.696,0,0.695,0,1.387l18.756,16.716c0,0.692,0.695,0.692,0.695,0.692C328.831,101.497,329.57,101.497,329.57,100.804z
		 M344.161,115.391l-7.644-2.778c-0.695,0-0.695,0-1.392-0.694v-0.695l17.41-59.822c0-0.692,0.695-0.692,0.695-1.388
		c0.695,0,0.695,0,1.387,0l7.641,2.083c0.695,0.695,0.695,0.695,0.695,0.695c0.695,0.692,0.695,0.692,0,1.388L346.241,114
		c-0.695,0.694-0.695,0.694-1.392,0.694C344.85,115.391,344.161,115.391,344.161,115.391z"/>
</g>
<g>
	<rect x="653.01" y="-203.824" fill="#F16952" width="175.904" height="187.5"/>
	<rect x="654.319" y="-202.156" fill="none" stroke="#EEEEEE" stroke-width="0.4807" width="172.863" height="185.208"/>
	<path fill="#FFFFFF" d="M760.856-92.001h-7.539l-4.186-10.884h-16.811l-4.186,10.884h-6.699l19.316-45.104L760.856-92.001z
		 M740.754-144.606l-31.883,10.885l5.025,42.555l26.857,14.998l27.695-14.998l4.186-42.555L740.754-144.606z M734.836-108.722
		h11.779l-5.861-14.167L734.836-108.722z"/>
</g>
<g>
	<rect x="451.989" y="-201.011" fill="#7D67AD" width="175.701" height="182.179"/>
	<rect x="453.708" y="-199.242" fill="none" stroke="#EEEEEE" stroke-width="0.4807" width="172.771" height="179.145"/>
	<path fill="#FFFFFF" d="M561.6-117.36c0.805-0.811,2.426-2.428,4.047-4.049c-1.621-2.428-3.242-4.098-4.857-4.909
		c-2.43-1.618-4.855-2.428-7.287-2.428c-2.484,0-4.908,0.811-8.15,1.618c-2.426,0.811-4.047,1.621-4.85,1.621
		c-0.816,0-2.438-0.811-4.863-0.811c-3.24-1.618-5.666-1.618-8.098-1.618c-4.91,0-8.15,1.618-11.387,6.526
		c-2.432,3.239-4.045,8.098-4.045,13.765c0,4.049,0.811,8.098,2.432,12.955c1.613,4.859,4.045,8.909,6.471,12.196
		c3.24,4.049,5.721,5.667,8.961,5.667c0.805,0,2.426-0.811,4.855-1.618c2.432-0.811,4.855-1.621,5.674-1.621
		c1.613,0,4.045,0.811,6.471,1.621c2.432,0.807,4.045,1.618,5.721,1.618c3.24,0,6.477-2.428,9.713-7.288
		c2.438-3.288,4.053-6.527,5.674-10.576c-2.432-0.811-4.857-2.428-6.48-4.856c-1.619-2.432-2.43-5.67-2.43-8.098
		C558.358-111.694,559.168-114.122,561.6-117.36z M543.737-127.936c-1.621,0-2.434,0.807-4.855,0.807
		c0.805-4.046,1.621-8.095,4.045-10.523c1.621-3.242,4.857-4.86,9.766-5.67c0,1.621,0,4.049-0.855,5.67
		c-0.818,2.428-1.621,4.856-3.242,6.477C546.973-129.557,545.352-128.747,543.737-127.936z"/>
</g>
<g>
	<rect x="649.354" y="-3.879" fill="#E14848" width="182.797" height="181.982"/>
	<rect x="651.229" y="-2.112" fill="none" stroke="#EEEEEE" stroke-width="0.4807" width="179.908" height="178.952"/>
	<path fill="#FFFFFF" d="M736.303,95.047c-1.621,0-2.424-0.807-3.232-1.616c-1.619-0.81-1.619-2.425-1.619-4.046
		c0-3.234,0.811-6.469,2.43-8.088c1.611-2.425,4.041-3.231,6.469-3.231c1.613,0,2.424,0.806,3.285,1.616
		c0.811,1.616,1.619,3.235,1.619,4.854c0,1.616-0.809,4.041-1.619,5.661c-0.861,1.616-1.672,2.425-3.285,3.235
		C739.542,94.241,737.92,95.047,736.303,95.047z M739.542,49.703c-6.471,0-12.139,1.619-17.799,4.855
		c-5.713,4.044-10.564,8.089-13.797,13.75c-3.238,5.713-4.857,12.183-4.857,18.653c0,6.471,1.619,12.131,4.857,17.795
		c3.23,5.66,8.084,10.564,13.797,13.8c5.66,3.235,11.328,4.853,17.799,4.853c7.326,0,14.605-1.615,20.266-5.662
		c0.811-0.81,1.619-1.615,1.619-2.425c0-1.618,0-2.43-0.811-3.235l-1.611-1.668c0-0.81-0.811-0.81-1.619-1.619
		c-1.619,0-2.43,0-3.238,0.811c-4.041,3.283-8.893,4.094-14.605,4.094c-4.857,0-8.898-0.811-13.75-3.285
		c-4.049-2.426-7.279-5.66-9.762-9.705c-2.422-4.854-3.232-8.898-3.232-13.75c0-4.854,0.813-9.706,3.232-13.75
		c2.48-4.094,5.713-7.329,9.762-9.758c4.852-2.426,8.893-4.041,13.75-4.041c5.713,0,9.754,0.806,13.795,3.235
		c4.049,1.616,8.09,4.044,9.709,7.276c2.43,4.097,4.041,8.143,4.041,12.993c0,3.235-0.809,5.662-2.422,8.089
		c-1.619,3.236-3.238,4.041-6.469,4.852c-0.811,0-1.619-0.811-1.619-1.615c-0.811-0.811-0.811-1.621,0-3.236l3.23-17.794
		c0-0.81,0-2.478-0.803-3.288c-0.811-0.806-1.619-0.806-2.43-0.806h-6.469c-0.813,0-1.621,0-1.621,0
		c-0.811,0.806-0.811,0.806-0.811,1.616h0.811c-2.43-2.426-5.713-3.235-9.754-3.235c-3.238,0-6.471,0.81-9.709,2.425
		c-3.232,2.479-5.66,4.904-8.082,8.143c-1.619,4.041-2.43,7.275-2.43,12.131c0,4.852,1.611,8.09,4.041,11.321
		c2.43,2.429,5.66,4.045,10.52,4.045c1.611,0,3.23-0.808,5.66-1.616c2.43-0.81,4.041-2.429,4.902-4.045
		c0.811,2.426,2.422,4.045,4.041,4.045c1.619,0.811,3.238,0.811,6.473,0.811h0.809c7.281,0,12.941-2.43,17.035-6.471
		c3.238-4.045,4.855-8.899,4.855-15.37c0-6.47-1.617-12.183-4.855-17.034c-3.285-4.855-8.137-8.899-13.797-12.134
		C752.534,51.322,746.868,49.703,739.542,49.703z"/>
</g>
<g>
	<rect x="448.528" y="3.512" fill="#DA4D9B" width="183.045" height="166.738"/>
	<rect x="449.643" y="5.131" fill="none" stroke="#EEEEEE" stroke-width="0.4807" width="180.398" height="163.961"/>
	<path fill="#FFFFFF" d="M520.178,100.081l-22.277,2.226l-1.482,4.444l21.541,1.483L520.178,100.081z M583.26,106.75l-1.477-4.444
		l-23.021-2.226l3.012,8.153L583.26,106.75z M534.26,100.081l5.234-17.786h0.742l5.188,17.786H534.26z M539.495,54.089
		l-22.277,65.308h11.115l2.961-11.163h16.35l3.709,11.163h10.422L539.495,54.089z"/>
</g>
<g>
	<rect x="254.351" y="-203.047" fill="#FAAD42" width="179.587" height="186.876"/>
	<rect x="256.108" y="-201.384" fill="none" stroke="#EEEEEE" stroke-width="0.4807" width="176.59" height="184.592"/>
	<path fill="#FFFFFF" d="M358.936-95.799v19.983h19.033v-19.983H358.936z M353.09-77.475h-17.375V-94.09h17.375V-77.475z
		 M334.879-95.799v19.983h19.041v-19.983H334.879z M328.211-77.475h-16.555V-94.09h16.555V-77.475z M310-95.799v19.983h19.92
		v-19.983H310z M377.147-101.616h-17.382v-16.611h17.382V-101.616z M358.936-119.889v19.937h19.033v-19.937H358.936z
		 M353.09-101.616h-17.375v-16.611h17.375V-101.616z M334.879-119.889v19.937h19.041v-19.937H334.879z M328.211-101.616h-16.555
		v-16.611h16.555V-101.616z M310-119.889v19.937h19.92v-19.937H310z M377.147-125.703h-17.382v-17.492h17.382V-125.703z
		 M358.936-144.026v19.155h19.033v-19.155H358.936z M353.09-125.703h-17.375v-17.492h17.375V-125.703z M334.879-144.026v19.155
		h19.041v-19.155H334.879z M328.211-125.703h-16.555v-17.492h16.555V-125.703z M310-144.026v19.155h19.92v-19.155H310z"/>
</g>
<path id="building" fill="#EEEEEE" d="M-128.635,117.409h22.809v-13.156c0-0.686,0.696-1.375,0.696-2.066
	c0.685,0,1.376-0.689,2.066-0.689h7.592c0.685,0,1.381,0.689,2.066,0.689c0.69,0.691,0.69,1.381,0.69,2.066v13.156H-69.9V33.787
	h-58.735V117.409L-128.635,117.409z M-53.986,120.167v7.592h-90.563v-7.592c0-0.686,0-1.375,0.685-1.375
	c0.696-0.691,1.381-0.691,2.078-0.691h3.448V28.958c0-1.381,0.685-2.757,1.421-3.448c1.381-0.691,2.072-1.381,3.453-1.381h68.438
	c1.381,0,2.066,0.69,3.448,1.381c0.69,0.69,1.381,2.066,1.381,3.448V118.1h4.138c0.691,0,0.691,0,1.382,0.691
	C-53.986,118.79-53.986,119.48-53.986,120.167z M-90.598,95.286h8.277c0.691,0,1.381,0,2.066-0.691c0-0.69,0.696-1.381,0.696-2.066
	v-7.592c0-0.689-0.696-1.381-0.696-2.072c-0.685,0-1.375-0.691-2.066-0.691h-8.277c0,0-0.735,0.691-1.426,0.691
	c-0.691,0.69-0.691,1.38-0.691,2.072v7.592c0,0.686,0,1.376,0.691,2.066C-91.333,95.286-91.333,95.286-90.598,95.286z
	 M-105.826,92.527v-7.592c0-0.69,0-1.381-0.685-2.072c0,0-0.696-0.691-1.381-0.691h-8.322c-0.696,0-1.381,0.691-2.072,0.691
	c0,0.69-0.69,1.382-0.69,2.072v7.592c0,0.685,0.69,1.376,0.69,2.065c0.691,0.691,1.376,0.691,2.072,0.691h8.322
	c0.685,0,0.685,0,1.381-0.691C-105.826,93.903-105.826,93.211-105.826,92.527z M-90.598,75.923h8.277c0.691,0,1.381,0,2.066-0.691
	c0-0.69,0.696-1.381,0.696-2.072v-7.586c0-0.69-0.696-1.381-0.696-2.072c-0.685-0.691-1.375-0.691-2.066-0.691h-8.277
	c0,0-0.735,0-1.426,0.691c-0.691,0.69-0.691,1.381-0.691,2.072v7.586c0,0.69,0,1.381,0.691,2.072
	C-91.333,75.232-91.333,75.923-90.598,75.923z M-116.214,75.923h8.322c0.685,0,0.685,0,1.381-0.691
	c0.685-0.69,0.685-1.381,0.685-2.072v-7.586c0-0.69,0-1.381-0.685-2.072c0-0.691-0.696-0.691-1.381-0.691h-8.322
	c-0.696,0-1.381,0-2.072,0.691c0,0.69-0.69,1.381-0.69,2.072v7.586c0,0.69,0.69,1.381,0.69,2.072
	C-117.596,75.232-116.911,75.923-116.214,75.923z M-90.598,56.601h8.277c0.691,0,1.381-0.69,2.066-0.69
	c0-0.691,0.696-1.381,0.696-2.066v-8.328c0,0-0.696-0.69-0.696-1.375c-0.685-0.691-1.375-0.691-2.066-0.691h-8.277
	c0,0-0.735,0-1.426,0.691c-0.691,0.685-0.691,1.375-0.691,1.375v8.328c0,0.685,0,1.375,0.691,2.066
	C-91.333,55.911-91.333,56.601-90.598,56.601z M-118.977,53.844v-8.328c0,0,0.69-0.69,0.69-1.375
	c0.691-0.691,1.376-0.691,2.072-0.691h8.322c0.685,0,0.685,0,1.381,0.691c0.685,0.685,0.685,1.375,0.685,1.375v8.328
	c0,0.685,0,1.375-0.685,2.066c0,0-0.696,0.69-1.381,0.69h-8.322c-0.696,0-1.381-0.69-2.072-0.69
	C-118.287,55.22-118.977,54.529-118.977,53.844z"/>
<path id="people" fill="#EEEEEE" d="M-56.686,177.765l-4.279-1.069c-2.169,1.604-4.304,2.67-6.979,2.67
	c-2.135,0-4.274-0.535-6.414-1.601c1.07,2.135,2.139,4.81,2.139,7.479v10.152h17.132c1.069,0,2.139-0.535,2.669-1.07
	c1.07-1.068,1.07-1.604,1.07-2.668v-6.414c0-1.604,0-3.205-1.07-4.81C-53.486,179.366-55.086,178.299-56.686,177.765z
	 M-130.021,194.862v-9.617c0-2.67,0.535-4.81,2.139-7.479c-2.674,1.065-4.809,1.601-7.514,1.601
	c-2.139-0.535-4.278-1.066-6.413-2.67l-3.74,1.069c-2.135,0.534-3.205,1.601-4.274,2.67c-1.07,1.604-1.604,3.205-1.604,4.81v6.414
	c0,1.064,0.535,1.6,1.07,2.668c0.535,0.535,1.604,1.07,2.674,1.07h17.662V194.862z M-133.795,177.23
	c2.705,0,5.375-1.069,7.514-3.239c2.139-2.139,3.209-4.809,3.209-8.014c0-2.674-1.07-5.344-3.209-7.482
	c-2.139-2.136-4.274-3.205-7.514-3.205c-3.205,0-5.878,1.069-8.013,3.205c-2.135,2.139-3.205,4.809-3.205,7.482
	c0,3.205,1.069,5.875,3.205,8.014C-139.674,176.161-137,177.23-133.795,177.23z M-68.478,177.23c2.669,0,5.344-1.069,7.513-3.239
	c2.14-2.139,3.209-4.809,3.209-8.014c0-2.674-1.069-5.344-3.209-7.482c-2.169-2.136-4.844-3.205-7.513-3.205
	c-3.205,0-5.879,1.069-8.014,3.205c-2.135,2.139-3.239,4.809-3.239,7.482c0,3.205,1.104,5.875,3.239,8.014
	C-74.357,176.161-71.683,177.23-68.478,177.23z M-83.47,173.991l-6.409-1.604c-3.744,2.705-7.483,4.309-11.792,3.773
	c-4.27,0-8.014-1.07-11.218-3.773l-5.914,1.604c-2.669,0.535-4.809,2.17-6.409,4.309c-1.6,1.601-2.14,4.275-2.14,6.945v9.617
	c0,1.069,0.54,2.67,1.604,3.739c1.07,1.069,2.135,1.604,3.739,1.604h41.207c1.635,0,3.244-0.535,4.309-1.604
	c1.07-1.069,1.604-2.67,1.604-3.739v-9.617c0-2.67-1.07-5.345-2.139-6.945C-78.626,176.161-80.801,174.525-83.47,173.991z
	 M-101.137,140.297c2.674,0,5.909,0.535,8.048,2.135c2.67,1.07,4.809,3.209,5.878,5.879c1.6,2.705,2.14,5.374,2.14,8.048
	c0,3.205-0.54,5.878-2.14,8.548c-1.069,2.67-3.208,4.274-5.878,5.879c-2.139,1.6-5.374,2.135-8.048,2.135
	c-3.205,0-5.874-0.535-8.548-2.135c-2.135-1.604-4.274-3.209-5.909-5.879c-1.604-2.67-2.139-5.344-2.139-8.548
	c0-2.674,0.535-5.344,2.139-8.048c1.635-2.67,3.774-4.809,5.909-5.879C-107.011,140.833-104.341,140.297-101.137,140.297z"/>
<path id="pencil" fill="#EEEEEE" d="M-182.001,47.088l-7.236-7.202c-0.601-0.601-1.201-0.601-1.201-0.601
	c-0.601,0-1.201,0-1.802,0.601l-5.4,5.4l10.2,10.239l5.439-5.439c0.601-0.601,0.601-1.201,0.601-1.201
	C-181.4,48.284-181.4,47.688-182.001,47.088z M-193.437,61.526l-10.239-10.239l-32.437,32.476l-1.201,11.396l11.401-1.195
	L-193.437,61.526z M-176,56.126l-46.274,46.235l-15.64,1.802c-2.397,0-4.199-0.601-6.035-2.402c-1.802-1.797-2.402-3.598-2.402-6
	l1.802-15.635l46.313-46.24c2.397-1.797,4.8-2.998,7.798-2.998c2.397,0,4.8,1.201,7.202,2.998l7.236,7.202
	c2.397,2.397,2.998,4.8,2.998,7.798C-173.002,51.287-173.603,53.724-176,56.126z M-203.676,91.561l6.035-5.4
	c0-0.601,0.601-0.601,1.201-0.601s1.201,0.601,1.201,1.2v25.841c0,2.397-1.201,4.198-2.402,5.996
	c-1.797,1.2-3.599,2.401-6.035,2.401h-61.914c-2.397,0-4.8-1.201-6.001-2.401c-1.797-1.798-2.397-3.599-2.397-5.996V50.687
	c0-2.402,0.601-4.8,2.397-6.001c1.201-1.802,3.604-2.397,6.001-2.397h48.115c0.601,0,1.196,0,1.196,0.596
	c0,0.601,0,1.201-0.596,1.802l-5.4,5.4l-0.64,0.601h-42.676v61.914h61.914V92.161L-203.676,91.561L-203.676,91.561z"/>
<path id="smile" fill="#EEEEEE" d="M-200.698,194.399c1.198-1.197,1.198-2.396,0.599-4.188c-0.599-1.198-1.797-1.797-2.995-2.396
	c-1.792,0-3.029,0.6-4.223,1.797c-2.995,4.188-5.985,6.58-10.174,7.778c-4.188,1.797-7.782,1.797-12.01,0
	c-3.589-1.198-7.179-3.589-10.174-7.778c-1.193-1.197-2.392-1.797-4.188-1.797c-1.193,0.6-2.43,1.198-3.029,2.396
	c-0.599,1.791-0.599,2.99,0.599,4.188c3.628,5.387,8.416,8.977,14.401,11.372c5.387,1.792,11.406,1.792,16.793,0
	C-209.113,203.375-204.287,199.786-200.698,194.399z M-234.887,162.646c-1.193,0-2.99,0.595-4.188,1.192h0.599
	c0,0,1.198,0.6,1.797,1.199c1.198,0.598,1.198,1.797,1.198,2.994c0,1.193,0,1.793-1.198,2.991c-0.599,0.599-1.797,1.198-2.396,1.198
	c-1.198,0-2.392-0.6-2.991-1.198c-0.599-1.198-1.198-1.797-1.198-2.991h0.599c-1.198,1.193-1.797,2.991-1.797,4.188
	c0,2.99,1.198,5.388,2.995,7.18c1.792,1.797,4.188,2.995,6.58,2.995c2.995,0,5.387-1.198,7.184-2.995
	c1.797-1.792,3.029-4.188,3.029-7.18c0-2.395-1.232-4.786-3.029-6.584C-229.5,163.838-231.892,162.646-234.887,162.646z
	 M-212.104,162.646c-1.797,0-2.995,0.595-4.792,1.192h0.599c0.599,0,1.797,0.6,2.396,1.199c0.599,0.598,1.198,1.797,1.198,2.994
	c0,1.193-0.599,1.793-1.198,2.991c-0.599,0.599-1.797,1.198-2.995,1.198c-1.193,0-1.792-0.6-2.99-1.198
	c-0.599-1.198-1.198-1.797-1.198-2.991h0.599c-1.193,1.193-1.792,2.991-1.792,4.188c0,2.99,1.193,5.388,2.99,7.18
	c1.797,1.797,4.188,2.995,7.184,2.995c2.391,0,4.787-1.198,6.58-2.995c2.43-1.792,3.029-4.188,3.029-7.18
	c0-2.395-0.599-4.786-3.029-6.584C-207.316,163.838-209.712,162.646-212.104,162.646z M-223.476,138.668
	c-7.816,0-15,1.793-21.58,5.985c-6.623,4.188-12.01,8.976-16.198,16.193c-3.589,6.585-6.02,13.764-6.02,21.546
	c0,7.816,2.43,14.996,6.02,21.58c4.188,6.584,9.575,11.971,16.198,16.193c6.58,3.594,13.764,5.387,21.58,5.387
	c7.778,0,14.961-1.793,21.58-5.387c7.184-4.224,11.971-9.609,16.159-16.193c3.628-6.584,6.02-13.764,6.02-21.58
	c0-7.782-2.391-14.961-6.02-21.546c-4.188-7.218-8.976-12.005-16.159-16.193C-208.514,141.061-215.698,138.668-223.476,138.668z
	 M-223.476,147.045c6.58,0,11.966,1.797,17.353,4.787c5.425,2.99,9.614,7.817,13.203,13.203c2.995,5.387,4.788,10.773,4.788,17.357
	c0,6.02-1.792,12.005-4.788,17.393c-3.589,5.387-7.778,9.574-13.203,13.164c-5.387,2.994-10.773,4.227-17.353,4.227
	c-6.024,0-12.005-1.231-17.392-4.227c-5.425-3.59-9.614-7.777-13.203-13.164c-2.995-5.387-4.193-11.373-4.193-17.393
	c0-6.584,1.198-11.971,4.193-17.357c3.589-5.386,7.778-10.213,13.203-13.203C-235.48,148.842-229.5,147.045-223.476,147.045z"/>
<g id="FB">
	<rect x="-268.842" y="240.971" fill="none" stroke="#FFFFFF" stroke-width="2" width="178.25" height="176.398"/>
	<path fill="#FFFFFF" stroke="#FFFFFF" stroke-width="2" stroke-miterlimit="10" d="M-187.195,365.74v-28.259h-8.307v-11.632h8.307
		v-8.305c0-4.991,1.664-8.319,4.991-11.646c1.663-1.652,4.989-3.314,9.968-3.314c3.329,0,6.658,0,8.308,0v9.969h-4.979
		c-3.329,0-4.99,1.664-4.99,1.664c0,1.665-1.666,3.329-1.666,4.977v6.655h11.632l-1.651,11.632h-9.98v28.26L-187.195,365.74
		L-187.195,365.74z"/>
</g>
<g id="twitter">
	<rect x="-8.492" y="-308.029" fill="none" stroke="#FFFFFF" stroke-width="2" width="176.492" height="176.398"/>
	<path fill="#FFFFFF" d="M104.737-228.14v1.662c0,6.656-1.664,11.632-3.328,16.623c-3.328,6.643-8.319,11.636-13.297,14.961
		c-5.086,3.328-11.741,4.978-20.047,4.978c-6.654,0-13.31-1.649-18.287-4.978h1.665c6.642,0,11.633-1.663,16.623-6.654
		c-3.327,0-4.99,0-6.654-1.662c-3.329-1.651-4.991-3.315-4.991-6.64h1.665c1.665,0,3.329,0,3.329,0
		c-1.664,0-4.991-1.667-6.655-4.991c-1.648-1.665-3.313-4.979-3.313-6.643v-1.665c1.664,1.665,3.313,1.665,6.641,1.665
		c-1.664,0-3.329-1.665-4.977-3.327c-1.664-1.667-1.664-4.991-1.664-6.657c0-1.647,0-4.977,1.664-6.639
		c3.313,3.327,6.642,6.639,11.632,9.967c4.978,1.667,9.968,3.329,14.959,3.329c0,0,0-1.662,0-3.329c0-1.662,0-3.328,1.664-4.976
		c1.664-3.329,3.313-4.991,4.978-4.991c1.771-1.664,3.436-1.664,6.748-1.664c1.665,0,3.329,0,4.991,0
		c1.664,1.664,1.664,1.664,3.328,3.328c3.328,0,6.641-1.664,8.306-3.328c-1.665,3.328-3.313,4.991-4.978,8.307
		c1.665-1.649,4.978-1.649,6.643-3.313C109.714-231.468,108.049-229.806,104.737-228.14z"/>
</g>
<g id="google">
	
		<rect x="1.753" y="-4.802" transform="matrix(-1 -0.0033 0.0033 -1 179.7249 167.0898)" fill="none" stroke="#FFFFFF" stroke-width="2" width="176.493" height="176.398"/>
	<path fill="#FFFFFF" d="M121.62,85.172l0.022-6.652l-8.307-0.027l-0.022,6.652l-6.654-0.021l-0.021,6.641l6.654,0.021l-0.027,8.317
		l8.307,0.027l0.027-8.317l6.652,0.022l0.021-6.641L121.62,85.172z M98.354,85.096c-0.005,1.649-0.005,1.649-0.011,3.312
		c-0.017,4.991-0.027,8.32-1.702,11.644c-3.337,3.303-5.014,6.624-8.335,8.279c-3.334,1.651-8.328,3.297-11.75,3.286
		c-4.991-0.017-8.314-1.689-11.621-3.362c-4.985-1.684-6.639-5.014-8.293-8.334c-3.313-3.34-3.297-8.331-3.286-11.66
		c0.016-4.976,0.027-8.305,3.362-11.621c1.676-3.322,3.351-6.629,8.348-8.277c3.317-1.653,6.651-3.305,11.642-3.288
		c5.087,0.017,11.734,1.702,15.031,6.703l-6.658,4.956c-1.656-1.668-4.978-3.346-8.4-3.356c-3.327-0.011-4.991-0.017-8.325,1.639
		c-1.655,1.657-3.322,3.318-4.992,4.975c-1.676,3.322-1.681,4.986-1.692,8.303c-0.011,3.324-0.017,4.991,1.643,6.658
		c1.653,3.332,3.31,5.002,4.954,6.656c3.329,0.011,4.988,1.682,8.314,1.692c1.76,0.006,5.092-1.648,6.756-1.643
		c1.67-1.644,3.338-3.303,5.006-4.962c0.006-1.661,1.672-1.656,1.678-3.318l-13.407-0.044l0.027-8.308L98.354,85.096z"/>
</g>
</svg>
