<?xml version="1.0" encoding="utf-8"?>
<!-- Generator: Adobe Illustrator 16.0.0, SVG Export Plug-In . SVG Version: 6.00 Build 0)  -->
<!DOCTYPE svg PUBLIC "-//W3C//DTD SVG 1.1//EN" "http://www.w3.org/Graphics/SVG/1.1/DTD/svg11.dtd">
<svg version="1.1" id="Layer_1" xmlns="http://www.w3.org/2000/svg" xmlns:xlink="http://www.w3.org/1999/xlink" x="0px" y="0px"
	 width="180px" height="180px" viewBox="0 -6.63 180 180" enable-background="new 0 -6.63 180 180" xml:space="preserve">
<g id="google">
	
		<rect x="2.507" y="-4.029" transform="matrix(-1 -0.0033 0.0033 -1 181.2304 168.6389)" fill="none" stroke="#FFFFFF" stroke-width="2" width="176.493" height="176.399"/>
	<path fill="#FFFFFF" d="M122.374,85.946l0.022-6.653l-8.307-0.027l-0.022,6.653l-6.654-0.021l-0.021,6.641l6.654,0.021
		l-0.027,8.317l8.307,0.027l0.027-8.317l6.652,0.022l0.021-6.641L122.374,85.946z M99.108,85.87
		c-0.005,1.649-0.005,1.649-0.011,3.312c-0.017,4.991-0.027,8.32-1.702,11.644c-3.337,3.303-5.014,6.624-8.334,8.279
		c-3.334,1.651-8.329,3.297-11.751,3.286c-4.991-0.017-8.314-1.689-11.621-3.362c-4.985-1.684-6.639-5.014-8.293-8.334
		c-3.313-3.34-3.297-8.331-3.286-11.66c0.016-4.976,0.027-8.305,3.362-11.621c1.676-3.323,3.351-6.629,8.348-8.277
		c3.317-1.653,6.651-3.304,11.642-3.288c5.087,0.017,11.735,1.703,15.031,6.703l-6.658,4.956c-1.657-1.667-4.979-3.345-8.401-3.356
		c-3.327-0.011-4.991-0.017-8.325,1.639c-1.655,1.657-3.322,3.318-4.992,4.975c-1.676,3.322-1.681,4.986-1.692,8.303
		c-0.011,3.324-0.017,4.991,1.643,6.658c1.653,3.332,3.31,5.002,4.954,6.656c3.329,0.011,4.988,1.682,8.314,1.692
		c1.76,0.006,5.092-1.648,6.757-1.643c1.67-1.644,3.337-3.303,5.005-4.962c0.006-1.661,1.672-1.656,1.678-3.318L77.37,94.106
		l0.027-8.308L99.108,85.87z"/>
</g>
</svg>
