<?xml version="1.0" encoding="utf-8"?>
<!-- Generator: Adobe Illustrator 16.0.0, SVG Export Plug-In . SVG Version: 6.00 Build 0)  -->
<!DOCTYPE svg PUBLIC "-//W3C//DTD SVG 1.1//EN" "http://www.w3.org/Graphics/SVG/1.1/DTD/svg11.dtd">
<svg version="1.1" id="Layer_1" xmlns="http://www.w3.org/2000/svg" xmlns:xlink="http://www.w3.org/1999/xlink" x="0px" y="0px"
	 width="182.798px" height="166.739px" viewBox="0 0 182.798 166.739" enable-background="new 0 0 182.798 166.739"
	 xml:space="preserve">
<g>
	<rect x="263.237" y="4.818" fill="#44B0E4" width="172.259" height="156.285"/>
	<rect x="264.842" y="6.209" fill="none" stroke="#EEEEEE" stroke-width="0.4807" width="169.094" height="154.375"/>
	<path fill="#FFFFFF" d="M371.293,100.804l18.1-16.715c0.695-0.692,0.695-0.692,0.695-1.388s0-0.695-0.695-1.391l-18.1-16.67
		c-0.695-0.695-0.695-0.695-1.391-0.695c0,0-0.695,0-0.695,0.695l-5.557,5.557c-0.695,0.695-0.695,0.695-0.695,1.391
		c0,0,0,0.692,0.695,0.692l11.113,10.421L363.65,93.119c-0.695,0-0.695,0-0.695,0.695s0,0.695,0.695,1.433l5.557,5.557
		c0,0.692,0.695,0.692,0.695,0.692C370.598,101.496,370.598,101.496,371.293,100.804z M329.57,100.804l5.557-5.557
		c0-0.738,0.695-0.738,0-1.433c0-0.695,0-0.695,0-0.695L323.28,82.701l11.847-10.421v-0.692c0.695-0.695,0-0.695,0-1.391
		l-5.557-5.557c0-0.695-0.74-0.695-1.429-0.695c0,0-0.695,0-0.695,0.695l-18.756,16.67c0,0.695,0,0.695,0,1.391s0,0.695,0,1.388
		l18.756,16.715c0,0.692,0.695,0.692,0.695,0.692C328.831,101.496,329.57,101.496,329.57,100.804z M344.16,115.391l-7.643-2.778
		c-0.695,0-0.695,0-1.391-0.695v-0.695l17.41-59.822c0-0.692,0.695-0.692,0.695-1.388c0.695,0,0.695,0,1.386,0l7.642,2.083
		c0.695,0.695,0.695,0.695,0.695,0.695c0.695,0.692,0.695,0.692,0,1.388L346.24,114c-0.695,0.695-0.695,0.695-1.391,0.695
		C344.85,115.391,344.16,115.391,344.16,115.391z"/>
</g>
<g>
	<rect x="653.01" y="-203.824" fill="#F16952" width="175.904" height="187.5"/>
	<rect x="654.319" y="-202.156" fill="none" stroke="#EEEEEE" stroke-width="0.4807" width="172.864" height="185.208"/>
	<path fill="#FFFFFF" d="M760.856-92.001h-7.539l-4.186-10.884h-16.81l-4.186,10.884h-6.7l19.318-45.104L760.856-92.001z
		 M740.755-144.606l-31.883,10.885l5.024,42.555l26.858,14.998l27.695-14.998l4.186-42.555L740.755-144.606z M734.837-108.722
		h11.779l-5.861-14.167L734.837-108.722z"/>
</g>
<g>
	<rect x="451.988" y="-201.011" fill="#7D67AD" width="175.702" height="182.179"/>
	<rect x="453.708" y="-199.242" fill="none" stroke="#EEEEEE" stroke-width="0.4807" width="172.771" height="179.145"/>
	<path fill="#FFFFFF" d="M561.6-117.36c0.805-0.811,2.426-2.428,4.047-4.049c-1.621-2.428-3.242-4.098-4.857-4.909
		c-2.431-1.618-4.855-2.428-7.287-2.428c-2.484,0-4.908,0.811-8.15,1.618c-2.426,0.811-4.047,1.621-4.85,1.621
		c-0.817,0-2.438-0.811-4.863-0.811c-3.242-1.618-5.667-1.618-8.098-1.618c-4.91,0-8.151,1.618-11.387,6.526
		c-2.432,3.239-4.046,8.098-4.046,13.765c0,4.049,0.811,8.098,2.432,12.955c1.614,4.859,4.046,8.909,6.471,12.196
		c3.241,4.049,5.72,5.667,8.961,5.667c0.804,0,2.425-0.811,4.856-1.618c2.432-0.811,4.856-1.621,5.674-1.621
		c1.613,0,4.045,0.811,6.471,1.621c2.431,0.807,4.045,1.618,5.719,1.618c3.242,0,6.478-2.428,9.713-7.288
		c2.438-3.288,4.053-6.527,5.674-10.576c-2.432-0.811-4.857-2.428-6.479-4.856c-1.62-2.432-2.431-5.67-2.431-8.098
		C558.358-111.694,559.169-114.122,561.6-117.36z M543.736-127.936c-1.621,0-2.432,0.807-4.855,0.807
		c0.804-4.046,1.621-8.095,4.045-10.523c1.621-3.242,4.857-4.86,9.766-5.67c0,1.621,0,4.049-0.856,5.67
		c-0.817,2.428-1.621,4.856-3.241,6.477C546.973-129.557,545.352-128.747,543.736-127.936z"/>
</g>
<g>
	<rect x="649.353" y="-3.879" fill="#E14848" width="182.798" height="181.982"/>
	<rect x="651.229" y="-2.112" fill="none" stroke="#EEEEEE" stroke-width="0.4807" width="179.908" height="178.952"/>
	<path fill="#FFFFFF" d="M736.303,95.047c-1.62,0-2.423-0.806-3.232-1.616c-1.619-0.81-1.619-2.425-1.619-4.045
		c0-3.235,0.81-6.47,2.429-8.089c1.612-2.425,4.041-3.231,6.47-3.231c1.613,0,2.423,0.806,3.285,1.616
		c0.81,1.616,1.619,3.235,1.619,4.854c0,1.616-0.81,4.041-1.619,5.661c-0.862,1.616-1.672,2.425-3.285,3.235
		C739.541,94.241,737.921,95.047,736.303,95.047z M739.541,49.703c-6.471,0-12.138,1.619-17.799,4.855
		c-5.713,4.044-10.564,8.089-13.796,13.75c-3.238,5.713-4.858,12.183-4.858,18.654c0,6.47,1.62,12.131,4.858,17.795
		c3.231,5.66,8.083,10.564,13.796,13.799c5.661,3.236,11.328,4.852,17.799,4.852c7.326,0,14.605-1.615,20.266-5.661
		c0.81-0.81,1.619-1.615,1.619-2.425c0-1.619,0-2.43-0.81-3.236l-1.612-1.668c0-0.809-0.81-0.809-1.619-1.619
		c-1.619,0-2.429,0-3.238,0.811c-4.041,3.283-8.893,4.094-14.605,4.094c-4.858,0-8.899-0.811-13.751-3.285
		c-4.048-2.426-7.279-5.66-9.761-9.705c-2.422-4.854-3.232-8.899-3.232-13.75c0-4.854,0.811-9.706,3.232-13.75
		c2.481-4.094,5.713-7.329,9.761-9.758c4.852-2.426,8.893-4.041,13.751-4.041c5.713,0,9.754,0.806,13.795,3.235
		c4.049,1.616,8.09,4.044,9.709,7.276c2.43,4.097,4.041,8.143,4.041,12.993c0,3.235-0.809,5.661-2.422,8.09
		c-1.619,3.235-3.238,4.041-6.47,4.851c-0.81,0-1.619-0.81-1.619-1.616c-0.81-0.81-0.81-1.62,0-3.235l3.231-17.795
		c0-0.81,0-2.478-0.803-3.288c-0.81-0.806-1.619-0.806-2.429-0.806h-6.47c-0.811,0-1.62,0-1.62,0c-0.81,0.806-0.81,0.806-0.81,1.616
		h0.81c-2.429-2.426-5.713-3.235-9.755-3.235c-3.238,0-6.47,0.81-9.709,2.425c-3.231,2.479-5.66,4.904-8.082,8.143
		c-1.619,4.041-2.429,7.276-2.429,12.131c0,4.851,1.612,8.089,4.041,11.321c2.429,2.428,5.661,4.045,10.519,4.045
		c1.612,0,3.232-0.807,5.66-1.617c2.43-0.809,4.042-2.428,4.904-4.044c0.81,2.426,2.422,4.044,4.041,4.044
		c1.619,0.811,3.238,0.811,6.471,0.811h0.81c7.28,0,12.94-2.429,17.034-6.471c3.238-4.044,4.857-8.899,4.857-15.369
		s-1.619-12.183-4.857-17.034c-3.284-4.855-8.136-8.899-13.796-12.134C752.533,51.322,746.867,49.703,739.541,49.703z"/>
</g>
<g>
	<rect x="448.527" y="3.512" fill="#DA4D9B" width="183.046" height="166.739"/>
	<rect x="449.643" y="5.131" fill="none" stroke="#EEEEEE" stroke-width="0.4807" width="180.398" height="163.962"/>
	<path fill="#FFFFFF" d="M520.179,100.08l-22.278,2.226l-1.482,4.444l21.541,1.484L520.179,100.08z M583.261,106.75l-1.478-4.444
		l-23.02-2.226l3.01,8.154L583.261,106.75z M534.26,100.08l5.235-17.785h0.741l5.188,17.785H534.26z M539.495,54.089l-22.278,65.308
		h11.115l2.961-11.163h16.35l3.709,11.163h10.422L539.495,54.089z"/>
</g>
<g>
	<rect x="254.351" y="-203.047" fill="#FAAD42" width="179.586" height="186.876"/>
	<rect x="256.108" y="-201.384" fill="none" stroke="#EEEEEE" stroke-width="0.4807" width="176.589" height="184.592"/>
	<path fill="#FFFFFF" d="M358.936-95.799v19.983h19.033v-19.983H358.936z M353.091-77.475h-17.376V-94.09h17.376V-77.475z
		 M334.88-95.799v19.983h19.04v-19.983H334.88z M328.212-77.475h-16.555V-94.09h16.555V-77.475z M310.001-95.799v19.983h19.92
		v-19.983H310.001z M377.147-101.616h-17.382v-16.611h17.382V-101.616z M358.936-119.889v19.937h19.033v-19.937H358.936z
		 M353.091-101.616h-17.376v-16.611h17.376V-101.616z M334.88-119.889v19.937h19.04v-19.937H334.88z M328.212-101.616h-16.555
		v-16.611h16.555V-101.616z M310.001-119.889v19.937h19.92v-19.937H310.001z M377.147-125.703h-17.382v-17.492h17.382V-125.703z
		 M358.936-144.026v19.155h19.033v-19.155H358.936z M353.091-125.703h-17.376v-17.492h17.376V-125.703z M334.88-144.026v19.155
		h19.04v-19.155H334.88z M328.212-125.703h-16.555v-17.492h16.555V-125.703z M310.001-144.026v19.155h19.92v-19.155H310.001z"/>
</g>
<path id="building" fill="#EEEEEE" d="M-128.635,117.409h22.809v-13.157c0-0.685,0.696-1.375,0.696-2.066
	c0.685,0,1.376-0.69,2.066-0.69h7.592c0.685,0,1.381,0.69,2.066,0.69c0.69,0.691,0.69,1.381,0.69,2.066v13.157H-69.9V33.787h-58.735
	V117.409z M-53.986,120.166v7.592h-90.563v-7.592c0-0.685,0-1.375,0.685-1.375c0.696-0.691,1.381-0.691,2.078-0.691h3.448V28.958
	c0-1.381,0.685-2.757,1.421-3.448c1.381-0.691,2.072-1.381,3.453-1.381h68.438c1.381,0,2.066,0.69,3.448,1.381
	c0.69,0.69,1.381,2.066,1.381,3.448v89.142h4.138c0.691,0,0.691,0,1.382,0.691C-53.986,118.79-53.986,119.48-53.986,120.166z
	 M-90.598,95.285h8.277c0.691,0,1.381,0,2.066-0.691c0-0.69,0.696-1.381,0.696-2.066v-7.592c0-0.69-0.696-1.381-0.696-2.072
	c-0.685,0-1.375-0.691-2.066-0.691h-8.277c0,0-0.735,0.691-1.426,0.691c-0.691,0.69-0.691,1.381-0.691,2.072v7.592
	c0,0.685,0,1.376,0.691,2.066C-91.333,95.285-91.333,95.285-90.598,95.285z M-105.826,92.527v-7.592c0-0.69,0-1.381-0.685-2.072
	c0,0-0.696-0.691-1.381-0.691h-8.322c-0.696,0-1.381,0.691-2.072,0.691c0,0.69-0.69,1.381-0.69,2.072v7.592
	c0,0.685,0.69,1.376,0.69,2.066c0.691,0.691,1.376,0.691,2.072,0.691h8.322c0.685,0,0.685,0,1.381-0.691
	C-105.826,93.903-105.826,93.212-105.826,92.527z M-90.598,75.923h8.277c0.691,0,1.381,0,2.066-0.691
	c0-0.69,0.696-1.381,0.696-2.072v-7.586c0-0.69-0.696-1.381-0.696-2.072c-0.685-0.691-1.375-0.691-2.066-0.691h-8.277
	c0,0-0.735,0-1.426,0.691c-0.691,0.69-0.691,1.381-0.691,2.072v7.586c0,0.69,0,1.381,0.691,2.072
	C-91.333,75.232-91.333,75.923-90.598,75.923z M-116.214,75.923h8.322c0.685,0,0.685,0,1.381-0.691
	c0.685-0.69,0.685-1.381,0.685-2.072v-7.586c0-0.69,0-1.381-0.685-2.072c0-0.691-0.696-0.691-1.381-0.691h-8.322
	c-0.696,0-1.381,0-2.072,0.691c0,0.69-0.69,1.381-0.69,2.072v7.586c0,0.69,0.69,1.381,0.69,2.072
	C-117.596,75.232-116.911,75.923-116.214,75.923z M-90.598,56.601h8.277c0.691,0,1.381-0.69,2.066-0.69
	c0-0.691,0.696-1.381,0.696-2.066v-8.328c0,0-0.696-0.69-0.696-1.375c-0.685-0.691-1.375-0.691-2.066-0.691h-8.277
	c0,0-0.735,0-1.426,0.691c-0.691,0.685-0.691,1.375-0.691,1.375v8.328c0,0.685,0,1.375,0.691,2.066
	C-91.333,55.911-91.333,56.601-90.598,56.601z M-118.977,53.844v-8.328c0,0,0.69-0.69,0.69-1.375
	c0.691-0.691,1.376-0.691,2.072-0.691h8.322c0.685,0,0.685,0,1.381,0.691c0.685,0.685,0.685,1.375,0.685,1.375v8.328
	c0,0.685,0,1.375-0.685,2.066c0,0-0.696,0.69-1.381,0.69h-8.322c-0.696,0-1.381-0.69-2.072-0.69
	C-118.287,55.22-118.977,54.529-118.977,53.844z"/>
<path id="people" fill="#EEEEEE" d="M-56.686,177.765l-4.279-1.069c-2.169,1.604-4.304,2.669-6.979,2.669
	c-2.135,0-4.274-0.535-6.414-1.6c1.07,2.135,2.139,4.809,2.139,7.479v10.153h17.132c1.069,0,2.139-0.535,2.669-1.07
	c1.07-1.069,1.07-1.604,1.07-2.669v-6.414c0-1.604,0-3.205-1.07-4.809C-53.486,179.365-55.086,178.3-56.686,177.765z
	 M-130.021,194.862v-9.618c0-2.67,0.535-4.809,2.139-7.479c-2.674,1.065-4.809,1.6-7.514,1.6c-2.139-0.535-4.278-1.065-6.413-2.669
	l-3.74,1.069c-2.135,0.535-3.205,1.6-4.274,2.67c-1.07,1.604-1.604,3.205-1.604,4.809v6.414c0,1.065,0.535,1.6,1.07,2.669
	c0.535,0.535,1.604,1.07,2.674,1.07h17.662V194.862z M-133.795,177.23c2.705,0,5.375-1.069,7.514-3.239
	c2.139-2.139,3.209-4.809,3.209-8.014c0-2.674-1.07-5.344-3.209-7.483c-2.139-2.135-4.274-3.205-7.514-3.205
	c-3.205,0-5.878,1.07-8.013,3.205c-2.135,2.139-3.205,4.809-3.205,7.483c0,3.205,1.069,5.875,3.205,8.014
	C-139.674,176.161-137,177.23-133.795,177.23z M-68.478,177.23c2.669,0,5.344-1.069,7.513-3.239c2.14-2.139,3.209-4.809,3.209-8.014
	c0-2.674-1.069-5.344-3.209-7.483c-2.169-2.135-4.844-3.205-7.513-3.205c-3.205,0-5.879,1.07-8.014,3.205
	c-2.135,2.139-3.239,4.809-3.239,7.483c0,3.205,1.104,5.875,3.239,8.014C-74.357,176.161-71.683,177.23-68.478,177.23z
	 M-83.47,173.991l-6.409-1.604c-3.744,2.705-7.483,4.309-11.792,3.774c-4.27,0-8.014-1.07-11.218-3.774l-5.914,1.604
	c-2.669,0.535-4.809,2.17-6.409,4.309c-1.6,1.6-2.14,4.274-2.14,6.944v9.618c0,1.069,0.54,2.669,1.604,3.739
	c1.07,1.069,2.135,1.604,3.739,1.604h41.207c1.635,0,3.244-0.535,4.309-1.604c1.07-1.07,1.604-2.67,1.604-3.739v-9.618
	c0-2.67-1.07-5.344-2.139-6.944C-78.626,176.161-80.801,174.525-83.47,173.991z M-101.137,140.297c2.674,0,5.909,0.535,8.048,2.135
	c2.67,1.07,4.809,3.209,5.878,5.879c1.6,2.705,2.14,5.374,2.14,8.048c0,3.205-0.54,5.878-2.14,8.548
	c-1.069,2.669-3.208,4.274-5.878,5.878c-2.139,1.6-5.374,2.135-8.048,2.135c-3.205,0-5.874-0.535-8.548-2.135
	c-2.135-1.604-4.274-3.209-5.909-5.878c-1.604-2.67-2.139-5.344-2.139-8.548c0-2.674,0.535-5.344,2.139-8.048
	c1.635-2.67,3.774-4.809,5.909-5.879C-107.011,140.832-104.341,140.297-101.137,140.297z"/>
<path id="pencil" fill="#EEEEEE" d="M-182.001,47.088l-7.236-7.202c-0.601-0.601-1.201-0.601-1.201-0.601
	c-0.601,0-1.201,0-1.802,0.601l-5.4,5.4l10.2,10.239l5.439-5.439c0.601-0.601,0.601-1.201,0.601-1.201
	C-181.4,48.284-181.4,47.688-182.001,47.088z M-193.437,61.526l-10.239-10.239l-32.437,32.476l-1.201,11.396l11.401-1.196
	L-193.437,61.526z M-176,56.126l-46.274,46.235l-15.64,1.802c-2.397,0-4.199-0.601-6.035-2.402
	c-1.802-1.797-2.402-3.599-2.402-6.001l1.802-15.635l46.313-46.24c2.397-1.797,4.8-2.998,7.798-2.998c2.397,0,4.8,1.201,7.202,2.998
	l7.236,7.202c2.397,2.397,2.998,4.8,2.998,7.798C-173.002,51.287-173.603,53.724-176,56.126z M-203.676,91.561l6.035-5.4
	c0-0.601,0.601-0.601,1.201-0.601s1.201,0.601,1.201,1.201v25.84c0,2.397-1.201,4.199-2.402,5.996
	c-1.797,1.201-3.599,2.402-6.035,2.402h-61.914c-2.397,0-4.8-1.201-6.001-2.402c-1.797-1.797-2.397-3.599-2.397-5.996V50.687
	c0-2.402,0.601-4.8,2.397-6.001c1.201-1.802,3.604-2.397,6.001-2.397h48.115c0.601,0,1.196,0,1.196,0.596
	c0,0.601,0,1.201-0.596,1.802l-5.4,5.4l-0.64,0.601h-42.676v61.914h61.914V92.161V91.561z"/>
<path id="smile" fill="#EEEEEE" d="M-200.698,194.399c1.198-1.198,1.198-2.396,0.599-4.188c-0.599-1.198-1.797-1.797-2.995-2.396
	c-1.792,0-3.029,0.599-4.223,1.797c-2.995,4.188-5.985,6.58-10.174,7.778c-4.188,1.797-7.782,1.797-12.01,0
	c-3.589-1.198-7.179-3.589-10.174-7.778c-1.193-1.198-2.392-1.797-4.188-1.797c-1.193,0.599-2.43,1.198-3.029,2.396
	c-0.599,1.792-0.599,2.99,0.599,4.188c3.628,5.386,8.416,8.976,14.401,11.372c5.387,1.792,11.406,1.792,16.793,0
	C-209.113,203.375-204.287,199.786-200.698,194.399z M-234.887,162.646c-1.193,0-2.99,0.594-4.188,1.193h0.599
	c0,0,1.198,0.599,1.797,1.198c1.198,0.599,1.198,1.797,1.198,2.995c0,1.193,0,1.792-1.198,2.991
	c-0.599,0.599-1.797,1.198-2.396,1.198c-1.198,0-2.392-0.599-2.991-1.198c-0.599-1.198-1.198-1.797-1.198-2.991h0.599
	c-1.198,1.193-1.797,2.991-1.797,4.188c0,2.99,1.198,5.387,2.995,7.179c1.792,1.797,4.188,2.995,6.58,2.995
	c2.995,0,5.387-1.198,7.184-2.995c1.797-1.792,3.029-4.188,3.029-7.179c0-2.396-1.232-4.787-3.029-6.584
	C-229.5,163.839-231.892,162.646-234.887,162.646z M-212.104,162.646c-1.797,0-2.995,0.594-4.792,1.193h0.599
	c0.599,0,1.797,0.599,2.396,1.198s1.198,1.797,1.198,2.995c0,1.193-0.599,1.792-1.198,2.991c-0.599,0.599-1.797,1.198-2.995,1.198
	c-1.193,0-1.792-0.599-2.99-1.198c-0.599-1.198-1.198-1.797-1.198-2.991h0.599c-1.193,1.193-1.792,2.991-1.792,4.188
	c0,2.99,1.193,5.387,2.99,7.179c1.797,1.797,4.188,2.995,7.184,2.995c2.391,0,4.787-1.198,6.58-2.995
	c2.43-1.792,3.029-4.188,3.029-7.179c0-2.396-0.599-4.787-3.029-6.584C-207.316,163.839-209.712,162.646-212.104,162.646z
	 M-223.476,138.669c-7.816,0-15,1.792-21.58,5.985c-6.623,4.188-12.01,8.976-16.198,16.193c-3.589,6.585-6.02,13.764-6.02,21.546
	c0,7.817,2.43,14.996,6.02,21.58c4.188,6.584,9.575,11.971,16.198,16.193c6.58,3.594,13.764,5.387,21.58,5.387
	c7.778,0,14.961-1.792,21.58-5.387c7.184-4.223,11.971-9.609,16.159-16.193c3.628-6.584,6.02-13.763,6.02-21.58
	c0-7.782-2.391-14.961-6.02-21.546c-4.188-7.217-8.976-12.005-16.159-16.193C-208.514,141.061-215.698,138.669-223.476,138.669z
	 M-223.476,147.046c6.58,0,11.966,1.797,17.353,4.787c5.425,2.99,9.614,7.817,13.203,13.203c2.995,5.387,4.788,10.773,4.788,17.357
	c0,6.02-1.792,12.005-4.788,17.392c-3.589,5.387-7.778,9.575-13.203,13.164c-5.387,2.995-10.773,4.228-17.353,4.228
	c-6.024,0-12.005-1.232-17.392-4.228c-5.425-3.589-9.614-7.777-13.203-13.164c-2.995-5.386-4.193-11.372-4.193-17.392
	c0-6.584,1.198-11.971,4.193-17.357c3.589-5.386,7.778-10.213,13.203-13.203C-235.48,148.843-229.5,147.046-223.476,147.046z"/>
<g id="FB">
	<rect x="-147.937" y="223.547" fill="none" stroke="#EEEEEE" stroke-width="0.4807" width="80.006" height="79.175"/>
	<path fill="#FFFFFF" d="M-111.291,279.549v-12.684h-3.728v-5.221h3.728v-3.728c0-2.24,0.747-3.734,2.24-5.227
		c0.747-0.741,2.24-1.488,4.475-1.488c1.493,0,2.987,0,3.728,0v4.475h-2.234c-1.493,0-2.24,0.747-2.24,0.747
		c0,0.747-0.747,1.494-0.747,2.234v2.987h5.221l-0.741,5.221h-4.48v12.684H-111.291z"/>
</g>
<g id="twitter">
	<rect x="-43.584" y="223.547" fill="none" stroke="#EEEEEE" stroke-width="0.4807" width="79.217" height="79.175"/>
	<path fill="#FFFFFF" d="M7.238,259.404v0.747c0,2.987-0.747,5.221-1.494,7.461c-1.494,2.981-3.734,5.222-5.968,6.715
		c-2.283,1.493-5.27,2.234-8.998,2.234c-2.987,0-5.974-0.741-8.208-2.234h0.747c2.981,0,5.221-0.747,7.461-2.987
		c-1.493,0-2.24,0-2.987-0.746c-1.494-0.741-2.24-1.488-2.24-2.981h0.747c0.747,0,1.494,0,1.494,0c-0.747,0-2.24-0.747-2.987-2.24
		c-0.74-0.747-1.487-2.234-1.487-2.981v-0.747c0.747,0.747,1.487,0.747,2.981,0.747c-0.747,0-1.494-0.747-2.234-1.494
		c-0.747-0.747-0.747-2.24-0.747-2.987c0-0.74,0-2.234,0.747-2.98c1.487,1.493,2.981,2.98,5.221,4.474
		c2.234,0.747,4.474,1.494,6.714,1.494c0,0,0-0.747,0-1.494c0-0.747,0-1.494,0.747-2.234c0.747-1.494,1.487-2.24,2.234-2.24
		c0.795-0.747,1.542-0.747,3.029-0.747c0.747,0,1.494,0,2.24,0c0.747,0.747,0.747,0.747,1.494,1.494
		c1.494,0,2.981-0.747,3.728-1.494c-0.747,1.494-1.487,2.24-2.234,3.728c0.747-0.74,2.234-0.74,2.981-1.487
		C9.472,257.91,8.726,258.657,7.238,259.404z"/>
</g>
<g id="google">
	<rect x="-150.878" y="315.408" fill="none" stroke="#EEEEEE" stroke-width="0.4807" width="79.217" height="79.176"/>
	<path fill="#FFFFFF" d="M-97.075,355.746v-2.988h-3.728v2.988h-2.987v2.98h2.987v3.734h3.728v-3.734h2.987v-2.98H-97.075z
		 M-107.517,355.746c0,0.74,0,0.74,0,1.486c0,2.24,0,3.734-0.747,5.229c-1.493,1.486-2.24,2.98-3.728,3.727
		c-1.494,0.748-3.734,1.494-5.27,1.494c-2.24,0-3.734-0.746-5.221-1.494c-2.24-0.746-2.987-2.24-3.734-3.727
		c-1.493-1.494-1.493-3.734-1.493-5.229c0-2.234,0-3.727,1.493-5.221c0.747-1.494,1.494-2.98,3.734-3.729
		c1.487-0.746,2.981-1.492,5.221-1.492c2.283,0,5.27,0.746,6.757,2.986l-2.981,2.234c-0.747-0.747-2.24-1.494-3.776-1.494
		c-1.493,0-2.24,0-3.734,0.747c-0.74,0.747-1.487,1.493-2.234,2.241c-0.747,1.492-0.747,2.24-0.747,3.727
		c0,1.494,0,2.24,0.747,2.988c0.747,1.492,1.494,2.24,2.234,2.98c1.494,0,2.241,0.746,3.734,0.746c0.79,0,2.283-0.746,3.03-0.746
		c0.747-0.74,1.494-1.488,2.24-2.234c0-0.746,0.747-0.746,0.747-1.494h-6.017v-3.727H-107.517z"/>
</g>
<path id="address" fill="#212529" d="M90.625-56.387c-1.005-1.514-2.014-3.025-3.528-5.042c-1.51-2.017-2.519-4.033-3.023-4.538
	c-1.009-1.007-1.514-2.017-1.514-3.024c-0.504-1.009-0.504-1.514-0.504-3.025c0-1.512,0.504-3.024,1.009-4.538
	c1.009-1.542,2.019-2.552,3.528-3.559c1.514-0.504,3.028-1.009,5.042-1.009c1.514,0,3.024,0.505,4.57,1.009
	c1.51,1.007,2.52,2.017,3.529,3.559c0.504,1.514,1.009,3.026,1.009,4.538c0,1.512,0,2.016-0.505,3.025
	c0,1.007-0.504,2.017-1.514,3.024c-0.505,0.504-1.51,2.521-3.057,4.538l-3.528,5.042l-0.505,0.505
	C91.13-55.882,90.625-56.387,90.625-56.387z"/>
<path id="mail" fill="#212529" d="M123.985-65.461c0.504,0,1.005,0,1.51-0.504c0.504,0,1.042-0.505,1.546-1.009l0.505-0.503
	c4.033-3.025,7.057-5.042,8.57-6.051c0.5-0.502,0.5-0.502,0.5-1.038v-1.009c0-0.504-0.5-1.007-0.5-1.512
	c-0.504-0.505-1.009-1.009-2.019-1.009H113.9c-1.009,0-1.514,0.504-2.015,1.009c-0.505,0.504-0.505,1.007-0.505,1.512v1.009
	c0,0.536,0,0.536,0.505,1.038c1.51,1.009,4.538,3.026,8.571,6.051l0.5,0.503c0.504,0.504,1.009,1.009,1.514,1.009
	C122.976-65.461,123.48-65.461,123.985-65.461z M136.116-71.511c0-0.505,0-0.505,0.5,0l0,0v10.083c0,0.502-0.5,1.007-0.5,1.512
	c-0.504,0.505-1.009,1.009-2.019,1.009H113.9c-1.009,0-1.514-0.504-2.015-1.009c-0.505-0.504-0.505-1.009-0.505-1.512v-10.083
	c0-0.505,0.505,0,0.505,0c1.005,0.502,3.528,2.519,7.562,5.545l0.504,0.504c0.505,0.503,1.51,1.007,2.015,1.007
	c0.504,0.504,1.514,0.504,2.019,0.504c0.504,0,1.51,0,2.014-0.504c0.538-0.504,1.042-0.504,2.047-1.512h0.504
	C132.584-68.992,135.107-71.008,136.116-71.511z"/>
<path id="phone" fill="#212529" d="M59.864-84.167l-5.042-1.007c-0.505,0-0.505,0-1.009,0l-0.505,0.504l-2.014,5.545
	c-0.505,0.505-0.505,0.505-0.505,1.009c0.505,0,0.505,0.503,0.505,0.503l3.023,2.521c-1.009,2.017-2.019,3.528-3.528,5.042
	c-1.547,1.543-3.057,2.552-5.075,3.559l-2.519-3.056H42.69c-0.505-0.503-0.505-0.503-1.009,0l-5.543,2.049l-0.504,0.504
	c0,0.502,0,0.502,0,1.007l1.005,5.042c0,0.503,0.505,0.503,0.505,0.503c0.504,0.504,0.504,0.504,1.009,0.504
	c4.033,0,7.561-1.007,11.089-3.023c3.562-2.017,6.589-5.042,8.604-8.604c2.019-3.528,3.024-7.057,3.024-11.09
	c0-0.504,0-0.504-0.5-1.009C60.369-83.663,60.369-84.167,59.864-84.167z"/>
<path id="plane" d="M102,74.744L79.28,87.885c-0.5,0.5-0.5,1.005-0.5,1.51c0,0.505,0,0.505,0.5,1.009l5.547,2.015l14.146-12.632
	c0,0,0,0,0.509,0v0.504L87.35,94.942v3.528c0,0.505,0,1.009,0.504,1.009c0,0.505,0.5,0.505,1.009,0.505c0,0,0.5,0,0.5-0.505
	l3.061-3.528l6.548,2.519c0,0,0.509,0,1.009,0c0-0.504,0.509-0.504,0.509-1.009l3.528-21.203c0-0.505,0-1.009-0.508-1.514
	C103.01,74.744,102.505,74.744,102,74.744z"/>
</svg>
