<?xml version="1.0" encoding="utf-8"?>
<!-- Generator: Adobe Illustrator 16.0.0, SVG Export Plug-In . SVG Version: 6.00 Build 0)  -->
<!DOCTYPE svg PUBLIC "-//W3C//DTD SVG 1.1//EN" "http://www.w3.org/Graphics/SVG/1.1/DTD/svg11.dtd">
<svg version="1.1" id="Layer_1" xmlns="http://www.w3.org/2000/svg" xmlns:xlink="http://www.w3.org/1999/xlink" x="0px" y="0px"
	 width="172.26px" height="156.721px" viewBox="0 0 172.26 156.721" enable-background="new 0 0 172.26 156.721"
	 xml:space="preserve">
<g>
	<rect y="0.436" fill="#44B0E4" width="172.26" height="156.285"/>
	<rect x="1.605" y="1.826" fill="none" stroke="#EEEEEE" stroke-width="0.4807" width="169.094" height="154.375"/>
	<path fill="#FFFFFF" d="M108.057,96.421l18.1-16.715c0.695-0.692,0.695-0.692,0.695-1.388s0-0.695-0.695-1.391l-18.1-16.67
		c-0.695-0.695-0.695-0.695-1.391-0.695c0,0-0.695,0-0.695,0.695l-5.557,5.557c-0.695,0.695-0.695,0.695-0.695,1.391
		c0,0,0,0.692,0.695,0.692l11.113,10.421l-11.113,10.417c-0.695,0-0.695,0-0.695,0.695s0,0.695,0.695,1.433l5.557,5.557
		c0,0.692,0.695,0.692,0.695,0.692C107.361,97.113,107.361,97.113,108.057,96.421z M66.334,96.421l5.557-5.557
		c0-0.738,0.695-0.738,0-1.433c0-0.695,0-0.695,0-0.695L60.043,78.318l11.848-10.421v-0.692c0.695-0.695,0-0.695,0-1.391
		l-5.557-5.557c0-0.695-0.74-0.695-1.43-0.695c0,0-0.695,0-0.695,0.695l-18.756,16.67c0,0.695,0,0.695,0,1.391s0,0.695,0,1.388
		l18.756,16.715c0,0.692,0.695,0.692,0.695,0.692C65.594,97.113,66.334,97.113,66.334,96.421z M80.924,111.008l-7.643-2.778
		c-0.695,0-0.695,0-1.391-0.695v-0.695l17.41-59.822c0-0.692,0.695-0.692,0.695-1.388c0.695,0,0.695,0,1.385,0l7.642,2.083
		c0.695,0.695,0.695,0.695,0.695,0.695c0.695,0.692,0.695,0.692,0,1.388l-16.715,59.822c-0.695,0.695-0.695,0.695-1.391,0.695
		C81.613,111.008,80.924,111.008,80.924,111.008z"/>
</g>
<g>
	<rect x="406.576" y="-68.638" fill="#F16952" width="175.904" height="187.5"/>
	<rect x="407.885" y="-66.97" fill="none" stroke="#EEEEEE" stroke-width="0.4807" width="172.864" height="185.208"/>
	<path fill="#FFFFFF" d="M514.422,43.185h-7.539l-4.186-10.884h-16.81l-4.186,10.884h-6.7L494.32-1.92L514.422,43.185z M494.32-9.42
		L462.438,1.464l5.024,42.555l26.858,14.998l27.695-14.998l4.186-42.555L494.32-9.42z M488.402,26.464h11.779l-5.861-14.167
		L488.402,26.464z"/>
</g>
<g>
	<rect x="210.969" y="-65.825" fill="#7D67AD" width="175.702" height="182.179"/>
	<rect x="212.689" y="-64.056" fill="none" stroke="#EEEEEE" stroke-width="0.4807" width="172.77" height="179.145"/>
	<path fill="#FFFFFF" d="M320.581,17.826c0.804-0.811,2.425-2.428,4.046-4.049c-1.621-2.428-3.242-4.098-4.856-4.909
		c-2.431-1.618-4.856-2.428-7.288-2.428c-2.484,0-4.909,0.811-8.151,1.618c-2.425,0.811-4.046,1.621-4.85,1.621
		c-0.817,0-2.438-0.811-4.863-0.811c-3.242-1.618-5.667-1.618-8.098-1.618c-4.909,0-8.151,1.618-11.386,6.526
		c-2.432,3.239-4.046,8.098-4.046,13.765c0,4.049,0.811,8.098,2.432,12.955c1.614,4.859,4.045,8.909,6.471,12.196
		c3.242,4.049,5.719,5.667,8.961,5.667c0.804,0,2.425-0.811,4.856-1.618c2.432-0.811,4.856-1.621,5.673-1.621
		c1.614,0,4.046,0.811,6.471,1.621c2.431,0.807,4.046,1.618,5.719,1.618c3.242,0,6.478-2.428,9.713-7.288
		c2.438-3.288,4.052-6.527,5.673-10.576c-2.432-0.811-4.856-2.428-6.478-4.856c-1.621-2.432-2.431-5.67-2.431-8.098
		C317.339,23.492,318.15,21.064,320.581,17.826z M302.718,7.25c-1.621,0-2.432,0.807-4.856,0.807
		c0.804-4.046,1.621-8.095,4.046-10.523c1.621-3.242,4.856-4.86,9.765-5.67c0,1.621,0,4.049-0.856,5.67
		c-0.817,2.428-1.621,4.856-3.242,6.477C305.953,5.629,304.332,6.439,302.718,7.25z"/>
</g>
<g>
	<rect x="-120.895" y="118.289" fill="#E14848" width="27.121" height="27"/>
	<rect x="-120.616" y="118.551" fill="none" stroke="#EEEEEE" stroke-width="0.4807" width="26.692" height="26.55"/>
	<path fill="#FFFFFF" d="M-107.994,132.966c-0.24,0-0.359-0.12-0.479-0.24c-0.24-0.12-0.24-0.36-0.24-0.6c0-0.48,0.12-0.96,0.36-1.2
		c0.239-0.36,0.6-0.479,0.96-0.479c0.239,0,0.359,0.12,0.487,0.24c0.12,0.24,0.24,0.48,0.24,0.72c0,0.24-0.12,0.6-0.24,0.84
		c-0.128,0.24-0.248,0.36-0.487,0.48C-107.514,132.847-107.754,132.966-107.994,132.966z M-107.514,126.239
		c-0.96,0-1.801,0.24-2.641,0.72c-0.848,0.6-1.567,1.2-2.047,2.04c-0.48,0.848-0.721,1.808-0.721,2.768s0.24,1.8,0.721,2.64
		c0.479,0.84,1.199,1.567,2.047,2.047c0.84,0.48,1.681,0.72,2.641,0.72c1.087,0,2.167-0.24,3.007-0.84
		c0.12-0.12,0.24-0.24,0.24-0.36c0-0.24,0-0.36-0.12-0.48l-0.239-0.248c0-0.12-0.12-0.12-0.24-0.24c-0.24,0-0.36,0-0.48,0.12
		c-0.6,0.487-1.319,0.607-2.167,0.607c-0.721,0-1.32-0.12-2.04-0.487c-0.601-0.36-1.08-0.84-1.448-1.44
		c-0.359-0.72-0.479-1.32-0.479-2.04c0-0.72,0.12-1.44,0.479-2.04c0.368-0.607,0.848-1.087,1.448-1.448
		c0.72-0.36,1.319-0.6,2.04-0.6c0.848,0,1.447,0.12,2.047,0.48c0.601,0.24,1.2,0.6,1.44,1.08c0.36,0.608,0.6,1.208,0.6,1.928
		c0,0.48-0.12,0.84-0.359,1.2c-0.24,0.48-0.48,0.6-0.96,0.72c-0.12,0-0.24-0.12-0.24-0.24c-0.12-0.12-0.12-0.24,0-0.48l0.479-2.64
		c0-0.12,0-0.368-0.119-0.488c-0.12-0.12-0.24-0.12-0.36-0.12h-0.96c-0.12,0-0.24,0-0.24,0c-0.12,0.12-0.12,0.12-0.12,0.24h0.12
		c-0.36-0.36-0.848-0.48-1.447-0.48c-0.48,0-0.96,0.12-1.44,0.36c-0.479,0.368-0.84,0.728-1.199,1.208c-0.24,0.6-0.36,1.08-0.36,1.8
		c0,0.72,0.239,1.2,0.6,1.68c0.36,0.36,0.84,0.6,1.561,0.6c0.239,0,0.479-0.12,0.84-0.24s0.6-0.36,0.728-0.6
		c0.12,0.36,0.359,0.6,0.6,0.6c0.24,0.12,0.48,0.12,0.96,0.12h0.12c1.08,0,1.92-0.36,2.527-0.96c0.48-0.6,0.721-1.32,0.721-2.28
		s-0.24-1.808-0.721-2.527c-0.487-0.72-1.207-1.32-2.047-1.8C-105.586,126.479-106.427,126.239-107.514,126.239z"/>
</g>
<g>
	<rect x="-126.721" y="154.209" fill="#DA4D9B" width="29.641" height="27"/>
	<rect x="-126.541" y="154.472" fill="none" stroke="#EEEEEE" stroke-width="0.4807" width="29.212" height="26.55"/>
	<path fill="#FFFFFF" d="M-115.119,169.847l-3.607,0.36l-0.24,0.72l3.488,0.24L-115.119,169.847z M-104.904,170.927l-0.239-0.72
		l-3.728-0.36l0.487,1.32L-104.904,170.927z M-112.838,169.847l0.848-2.88h0.12l0.84,2.88H-112.838z M-111.991,162.399
		l-3.607,10.575h1.8l0.479-1.808h2.647l0.601,1.808h1.688L-111.991,162.399z"/>
</g>
<g>
	<rect x="209.281" y="127.924" fill="#FAAD42" width="179.586" height="186.876"/>
	<rect x="211.039" y="129.587" fill="none" stroke="#EEEEEE" stroke-width="0.4807" width="176.589" height="184.592"/>
	<path fill="#FFFFFF" d="M313.867,235.172v19.983H332.9v-19.983H313.867z M308.021,253.496h-17.376v-16.615h17.376V253.496z
		 M289.811,235.172v19.983h19.04v-19.983H289.811z M283.143,253.496h-16.555v-16.615h16.555V253.496z M264.932,235.172v19.983
		h19.921v-19.983H264.932z M332.078,229.355h-17.382v-16.611h17.382V229.355z M313.867,211.082v19.937H332.9v-19.937H313.867z
		 M308.021,229.355h-17.376v-16.611h17.376V229.355z M289.811,211.082v19.937h19.04v-19.937H289.811z M283.143,229.355h-16.555
		v-16.611h16.555V229.355z M264.932,211.082v19.937h19.921v-19.937H264.932z M332.078,205.269h-17.382v-17.492h17.382V205.269z
		 M313.867,186.945v19.155H332.9v-19.155H313.867z M308.021,205.269h-17.376v-17.492h17.376V205.269z M289.811,186.945v19.155h19.04
		v-19.155H289.811z M283.143,205.269h-16.555v-17.492h16.555V205.269z M264.932,186.945v19.155h19.921v-19.155H264.932z"/>
</g>
</svg>
