<?xml version="1.0" encoding="utf-8"?>
<!-- Generator: Adobe Illustrator 16.0.0, SVG Export Plug-In . SVG Version: 6.00 Build 0)  -->
<!DOCTYPE svg PUBLIC "-//W3C//DTD SVG 1.1//EN" "http://www.w3.org/Graphics/SVG/1.1/DTD/svg11.dtd">
<svg version="1.1" id="Layer_1" xmlns="http://www.w3.org/2000/svg" xmlns:xlink="http://www.w3.org/1999/xlink" x="0px" y="0px"
	 width="180px" height="180px" viewBox="0 -6.63 180 180" enable-background="new 0 -6.63 180 180" xml:space="preserve">
<g id="twitter">
	<rect x="2.508" y="-3.029" fill="none" stroke="#FFFFFF" stroke-width="2" width="176.492" height="176.398"/>
	<path fill="#FFFFFF" d="M115.737,76.86v1.662c0,6.656-1.664,11.632-3.328,16.623c-3.328,6.643-8.319,11.636-13.297,14.961
		c-5.086,3.328-11.741,4.978-20.047,4.978c-6.654,0-13.31-1.649-18.287-4.978h1.665c6.642,0,11.633-1.663,16.623-6.654
		c-3.327,0-4.99,0-6.654-1.662c-3.329-1.651-4.991-3.315-4.991-6.64h1.665c1.665,0,3.329,0,3.329,0
		c-1.664,0-4.991-1.667-6.655-4.991c-1.648-1.665-3.313-4.979-3.313-6.643v-1.665c1.664,1.665,3.313,1.665,6.641,1.665
		c-1.664,0-3.329-1.665-4.977-3.327c-1.664-1.667-1.664-4.991-1.664-6.657c0-1.647,0-4.977,1.664-6.639
		c3.313,3.327,6.642,6.639,11.632,9.967c4.978,1.667,9.968,3.329,14.959,3.329c0,0,0-1.662,0-3.329c0-1.662,0-3.328,1.664-4.976
		c1.664-3.329,3.313-4.991,4.978-4.991c1.771-1.664,3.436-1.664,6.748-1.664c1.665,0,3.329,0,4.991,0
		c1.664,1.664,1.664,1.664,3.328,3.328c3.328,0,6.641-1.664,8.306-3.328c-1.665,3.328-3.313,4.991-4.978,8.307
		c1.665-1.649,4.978-1.649,6.643-3.313C120.714,73.532,119.049,75.194,115.737,76.86z"/>
</g>
</svg>
